<?xml version="1.0" encoding="UTF-8"?>
<svg version="1.1" xmlns="http://www.w3.org/2000/svg" width="674" height="178">
<path d="M0 0 C0.90734817 3.84863873 1.10430748 7.38267625 1.0625 11.33203125 C1.05476563 12.54310547 1.04703125 13.75417969 1.0390625 15.00195312 C1.01314095 17.53060019 0.9871004 20.05924604 0.9609375 22.58789062 C0.79227539 33.44432382 0.79227539 33.44432382 3 44 C9.50379662 45.27722073 13.45897249 44.61730252 19.5234375 42.10546875 C20.30965485 41.79805252 21.09587219 41.49063629 21.90591431 41.17390442 C24.40259126 40.19510465 26.88899486 39.19306154 29.375 38.1875 C55.4438649 27.7655504 55.4438649 27.7655504 61.9375 30 C65.61339166 32.40058231 66.73295287 33.80290637 68 38 C68.16358114 43.15280582 67.59468994 45.84230014 64.0625 49.625 C60.48441708 52.86301719 56.53082142 55.2866576 52.33203125 57.640625 C50.08050013 58.9530753 48.05143305 60.39658106 46 62 C46.59014893 62.01981934 47.18029785 62.03963867 47.78833008 62.06005859 C50.46350096 62.15534659 53.13789498 62.26500939 55.8125 62.375 C57.2056543 62.42140625 57.2056543 62.42140625 58.62695312 62.46875 C59.51962891 62.50742188 60.41230469 62.54609375 61.33203125 62.5859375 C62.15421143 62.6173584 62.9763916 62.6487793 63.82348633 62.68115234 C66 63 66 63 69 65 C70.69866318 71.36998692 70.33849593 78.59144374 69 85 C66.74446326 88.27416623 64.90388983 90.8846029 61 92 C58.65639085 91.74889902 56.32031805 91.41434251 54 91 C50.12197305 90.55709077 50.12197305 90.55709077 48.3125 92.5 C44.73254982 94.82212984 41.15007955 94.57872669 37 94 C34.4375 92.625 34.4375 92.625 33 91 C33 90.34 33 89.68 33 89 C31.989375 89.515625 30.97875 90.03125 29.9375 90.5625 C25.97831137 92.2455559 23.19529099 92.18734651 19 91 C16.5625 89.0625 16.5625 89.0625 15 87 C15 86.34 15 85.68 15 85 C14.05640625 85.47050781 13.1128125 85.94101563 12.140625 86.42578125 C-3.12463132 93.88852897 -17.02035133 96.18404764 -33.9375 96.125 C-35.6400293 96.13080078 -35.6400293 96.13080078 -37.37695312 96.13671875 C-38.45783203 96.13542969 -39.53871094 96.13414062 -40.65234375 96.1328125 C-42.12175415 96.13112061 -42.12175415 96.13112061 -43.62084961 96.12939453 C-46 96 -46 96 -48 95 C-49.06210606 91.81368183 -49.16548737 89.44533827 -49.22460938 86.0949707 C-49.24712769 84.87973221 -49.269646 83.66449371 -49.29284668 82.41242981 C-49.36387498 76.84963183 -49.42154051 71.28699344 -49.45996094 65.72387695 C-49.4822087 62.79131312 -49.52393648 59.86002755 -49.58300781 56.92797852 C-49.6543811 53.37764167 -49.69083286 49.82850415 -49.70307922 46.2774868 C-49.71843878 44.2787794 -49.76822883 42.2804313 -49.81872559 40.28230286 C-49.80540474 34.20668065 -49.72023102 30.01530145 -45.66503906 25.27807617 C-42.44999054 22.17681737 -38.95977202 19.48022043 -35.25 17 C-34.02160123 16.15442133 -32.79374296 15.30805698 -31.56640625 14.4609375 C-30.9645752 14.0494043 -30.36274414 13.63787109 -29.74267578 13.21386719 C-27.17057468 11.42226076 -24.68685559 9.51621422 -22.1875 7.625 C-14.91670478 2.35847091 -9.07326324 -0.65987369 0 0 Z " fill="#000000" transform="translate(102,48)"/>
<path d="M0 0 C6.01948353 3.53935297 8.01678142 8.13772583 9.9765625 14.7109375 C10.41199314 16.15356922 10.84860202 17.59584563 11.28613281 19.0378418 C11.52738892 19.83644623 11.76864502 20.63505066 12.01721191 21.45785522 C12.88863716 24.29257016 13.79386677 27.11491079 14.70605469 29.93676758 C32.04149785 83.61314777 32.04149785 83.61314777 29.8203125 109.0703125 C29.74772217 109.95195068 29.67513184 110.83358887 29.6003418 111.74194336 C29.16956955 116.24588141 28.73730965 119.50509376 25.8203125 123.0703125 C21.1662287 125.96755672 16.12188464 125.83643564 10.8203125 125.0703125 C7.1485912 123.22022037 5.13835566 121.02444198 3.8203125 117.0703125 C3.73853136 115.37014406 3.71281749 113.66694953 3.72265625 111.96484375 C3.72515381 111.07901611 3.72765137 110.19318848 3.73022461 109.28051758 C3.73932861 108.1592749 3.74843262 107.03803223 3.7578125 105.8828125 C3.7784375 102.3146875 3.7990625 98.7465625 3.8203125 95.0703125 C-7.7296875 95.0703125 -19.2796875 95.0703125 -31.1796875 95.0703125 C-31.06183183 101.00836745 -31.06183183 101.00836745 -30.90942383 106.94555664 C-30.84314119 113.61587104 -31.89755163 118.04709595 -35.99609375 123.4765625 C-40.18694365 126.53535814 -45.23746137 125.73964271 -50.1796875 125.0703125 C-54.40887877 122.78654922 -55.75455015 120.55694136 -57.1796875 116.0703125 C-57.40330143 113.38569809 -57.53021552 110.80634505 -57.55078125 108.12109375 C-57.56162247 107.35459 -57.57246368 106.58808624 -57.58363342 105.7983551 C-57.60999281 103.32633808 -57.61622993 100.85496305 -57.6171875 98.3828125 C-57.62024902 97.54727844 -57.62331055 96.71174438 -57.62646484 95.85089111 C-57.63839878 83.47390392 -56.53304263 72.73108518 -52.1796875 61.0703125 C-52.1796875 60.0803125 -52.1796875 59.0903125 -52.1796875 58.0703125 C-51.5196875 58.0703125 -50.8596875 58.0703125 -50.1796875 58.0703125 C-49.9940625 56.86375 -49.9940625 56.86375 -49.8046875 55.6328125 C-48.63413004 48.960635 -47.11111243 42.58928767 -44.8984375 36.18359375 C-43.87612203 33.17776402 -43.0376194 30.12669488 -42.1796875 27.0703125 C-41.42880088 24.51566563 -40.66667111 21.9650904 -39.890625 19.41796875 C-39.34015738 17.60021578 -38.81678852 15.77424471 -38.3046875 13.9453125 C-35.7338491 7.37539214 -32.46865745 2.17566454 -26.0390625 -0.98046875 C-18.48005874 -3.48981016 -7.308885 -3.08473854 0 0 Z M-14.1796875 23.0703125 C-16.98403595 31.13863727 -19.33295763 39.32754148 -21.6784668 47.53808594 C-22.37183209 49.96154633 -23.07154544 52.38311865 -23.77148438 54.8046875 C-24.21392865 56.34884751 -24.65599956 57.89311455 -25.09765625 59.4375 C-25.30698288 60.15936493 -25.51630951 60.88122986 -25.73197937 61.62496948 C-26.55936471 64.54085938 -27.1796875 67.02244423 -27.1796875 70.0703125 C-18.9296875 70.0703125 -10.6796875 70.0703125 -2.1796875 70.0703125 C-1.1568431 65.22239785 -1.1568431 65.22239785 -2.04418945 60.86254883 C-2.25803787 60.06855179 -2.47188629 59.27455475 -2.69221497 58.45649719 C-2.93171371 57.61362656 -3.17121246 56.77075592 -3.41796875 55.90234375 C-3.65879684 55.02632004 -3.89962494 54.15029633 -4.14775085 53.24772644 C-4.65792365 51.40139709 -5.17349349 49.55655164 -5.6940918 47.71313477 C-6.49131228 44.88591632 -7.26936458 42.05393158 -8.04492188 39.22070312 C-8.54314585 37.42677052 -9.04245758 35.63313957 -9.54296875 33.83984375 C-9.77639481 32.99090042 -10.00982086 32.14195709 -10.25032043 31.26728821 C-10.47362534 30.48274765 -10.69693024 29.69820709 -10.92700195 28.88989258 C-11.12099075 28.19881912 -11.31497955 27.50774567 -11.5148468 26.79573059 C-12.13126676 24.84834897 -12.13126676 24.84834897 -14.1796875 23.0703125 Z " fill="#000000" transform="translate(479.1796875,16.9296875)"/>
<path d="M0 0 C0.89054077 -0.00524185 1.78108154 -0.0104837 2.6986084 -0.0158844 C4.58128828 -0.02229094 6.46400825 -0.02098535 8.34667969 -0.01245117 C11.18239722 -0.00401441 14.01604742 -0.03260173 16.8515625 -0.06445312 C31.64819833 -0.12386561 44.36728271 1.26534901 56.21875 10.87890625 C60.17077082 14.91737752 61.99711724 19.11833453 63.71875 24.43359375 C64.04488281 25.29339844 64.37101562 26.15320313 64.70703125 27.0390625 C66.76251348 32.87952963 66.98417244 37.40823615 65.71875 43.43359375 C65.43644531 44.89345703 65.43644531 44.89345703 65.1484375 46.3828125 C62.7318418 57.4519319 58.05280873 64.83360576 48.71875 71.43359375 C42.16772583 75.05592476 34.83395508 76.07870218 27.53125 77.24609375 C26.68780029 77.38249268 25.84435059 77.5188916 24.9753418 77.65942383 C24.15461182 77.77697021 23.33388184 77.8945166 22.48828125 78.015625 C21.76229736 78.12108643 21.03631348 78.22654785 20.28833008 78.33520508 C16.68166663 78.47330345 13.29158872 77.9413737 9.71875 77.43359375 C9.73446045 78.57836182 9.7501709 79.72312988 9.76635742 80.90258789 C9.82088423 85.17220961 9.85518249 89.44180086 9.88354492 93.71166992 C9.89857988 95.55547267 9.91901333 97.39923997 9.94506836 99.24291992 C9.98168561 101.90161925 9.99852943 104.55984346 10.01171875 107.21875 C10.02720261 108.03569839 10.04268646 108.85264679 10.05863953 109.6943512 C10.06018834 115.02773342 9.24319992 118.70764155 6.71875 123.43359375 C3.11962439 126.42373026 0.26353124 126.82181392 -4.34375 126.74609375 C-5.36597656 126.74222656 -6.38820313 126.73835938 -7.44140625 126.734375 C-10.33701952 126.42768694 -11.82397782 125.93450138 -14.28125 124.43359375 C-18.67947631 118.88217697 -18.85202204 112.70245796 -18.78295898 105.90600586 C-18.78836197 104.88220322 -18.79376495 103.85840057 -18.79933167 102.80357361 C-18.81177951 99.43906224 -18.79535462 96.07541309 -18.77734375 92.7109375 C-18.77749882 90.36259415 -18.77898907 88.01425054 -18.78175354 85.66590881 C-18.78313573 80.75266152 -18.77060814 75.83970678 -18.74780273 70.92651367 C-18.71940341 64.63621517 -18.7221623 58.34640197 -18.73489285 52.05606747 C-18.74185493 47.20984265 -18.73405486 42.36372955 -18.72163582 37.517519 C-18.7171276 35.19833365 -18.716779 32.87913629 -18.72070122 30.55994987 C-18.72361894 27.31697968 -18.7070793 24.07467332 -18.68530273 20.83178711 C-18.68980438 19.87834412 -18.69430603 18.92490112 -18.69894409 17.94256592 C-18.63674928 12.35417095 -17.9973621 8.35847497 -15.28125 3.43359375 C-10.47676911 -0.08654323 -5.72704526 -0.0199245 0 0 Z M9.71875 22.43359375 C9.69409608 26.9725708 9.67591211 31.51150918 9.66381836 36.05053711 C9.6587786 37.59579141 9.6519468 39.14104091 9.64331055 40.6862793 C9.63122924 42.90284404 9.62551827 45.11934593 9.62109375 47.3359375 C9.61593246 48.03073715 9.61077118 48.7255368 9.60545349 49.44139099 C9.60525723 51.10588705 9.65685871 52.77024874 9.71875 54.43359375 C11.41330034 56.12814409 13.5295626 55.60532953 15.84375 55.62109375 C20.53948843 55.59048268 24.30990182 55.00118422 28.71875 53.43359375 C28.71875 52.77359375 28.71875 52.11359375 28.71875 51.43359375 C29.481875 51.20671875 30.245 50.97984375 31.03125 50.74609375 C34.42577913 49.08830045 35.21811705 47.88504953 36.71875 44.43359375 C38.25326588 38.39783131 37.45160451 34.52080337 35.3125 28.73046875 C33.06012453 25.48439822 30.36958771 23.76483844 26.71875 22.43359375 C23.7110417 22.0001359 20.81146474 22.04857133 17.78125 22.18359375 C17.00201172 22.20164062 16.22277344 22.2196875 15.41992188 22.23828125 C13.51898869 22.28492992 11.61869831 22.35665546 9.71875 22.43359375 Z " fill="#000000" transform="translate(349.28125,15.56640625)"/>
<path d="M0 0 C1.53222954 -0.01441132 1.53222954 -0.01441132 3.09541321 -0.02911377 C4.75010872 -0.03548859 4.75010872 -0.03548859 6.43823242 -0.04199219 C7.57395187 -0.04769226 8.70967133 -0.05339233 9.87980652 -0.05926514 C12.28477038 -0.06871672 14.68974721 -0.07524974 17.09472656 -0.07910156 C20.76870405 -0.08880119 24.44212077 -0.11982145 28.1159668 -0.15136719 C30.45255202 -0.15789791 32.78914124 -0.16314811 35.12573242 -0.16699219 C36.22279007 -0.17933899 37.31984772 -0.19168579 38.45014954 -0.20440674 C44.97120723 -0.18542379 49.80689163 0.20574117 54.79370117 4.84863281 C57.33942977 9.80610429 57.38851594 13.78078832 55.85620117 18.97363281 C53.55927681 22.87840424 51.50872028 24.33471846 47.25561523 25.7253418 C44.15482748 26.31947084 41.18459316 26.27216413 38.02807617 26.25878906 C37.36785461 26.25737411 36.70763306 26.25595917 36.02740479 26.25450134 C33.92862323 26.24892526 31.82995023 26.23637728 29.73120117 26.22363281 C28.30411938 26.21861472 26.87703592 26.21405235 25.44995117 26.20996094 C21.96029285 26.19981658 18.47086785 26.18023683 14.98120117 26.16113281 C14.98120117 34.08113281 14.98120117 42.00113281 14.98120117 50.16113281 C22.28088669 50.00356804 22.28088669 50.00356804 29.5793457 49.80078125 C35.71441032 49.73408407 39.33983909 50.01484935 43.98120117 54.16113281 C46.36029168 57.18906619 46.35314723 60.41224191 46.21948242 64.20410156 C45.84396291 67.28828645 45.05190835 68.83158724 42.98120117 71.16113281 C37.00146347 75.28100166 31.56501372 75.67671703 24.48120117 75.41113281 C21.34620117 75.32863281 18.21120117 75.24613281 14.98120117 75.16113281 C14.98120117 83.41113281 14.98120117 91.66113281 14.98120117 100.16113281 C18.34178711 100.10892578 18.34178711 100.10892578 21.77026367 100.05566406 C23.95465828 100.03222735 26.13903855 100.01403432 28.32348633 99.99633789 C29.83461844 99.98130738 31.34570735 99.96087717 32.85668945 99.93481445 C35.03632304 99.89817592 37.21537692 99.88134943 39.39526367 99.86816406 C40.70446777 99.85245361 42.01367188 99.83674316 43.36254883 99.82055664 C48.01910477 100.25881703 51.36390881 101.65537786 54.79370117 104.84863281 C57.19999954 109.53458227 57.37128313 113.70482683 56.04370117 118.66113281 C55.69307617 119.48613281 55.34245117 120.31113281 54.98120117 121.16113281 C54.32120117 121.16113281 53.66120117 121.16113281 52.98120117 121.16113281 C52.98120117 121.82113281 52.98120117 122.48113281 52.98120117 123.16113281 C46.75324287 126.46893037 41.32495476 126.614026 34.35229492 126.59472656 C33.2444313 126.59996841 32.13656769 126.60521027 30.99513245 126.61061096 C28.66115149 126.61701405 26.32713819 126.61571647 23.99316406 126.60717773 C20.42674365 126.59865204 16.86191738 126.62748066 13.2956543 126.65917969 C11.02286832 126.6607915 8.75007951 126.66021455 6.47729492 126.65722656 C4.88334145 126.67407753 4.88334145 126.67407753 3.25718689 126.69126892 C-2.78265692 126.63449654 -6.49912104 126.32866364 -11.01879883 122.16113281 C-16.65828659 112.73257673 -14.16449125 97.43880391 -14.15161133 86.78613281 C-14.1522863 84.81038399 -14.15325794 82.83463526 -14.1545105 80.85888672 C-14.15597836 76.73371585 -14.15386235 72.60856676 -14.14916992 68.48339844 C-14.14347321 63.22167223 -14.14675711 57.95999705 -14.15274239 52.69827271 C-14.15637268 48.62312441 -14.1551981 44.54798802 -14.15261459 40.47283936 C-14.15195214 38.53375238 -14.15274964 36.59466429 -14.15509415 34.65557861 C-14.18055061 7.68975357 -14.18055061 7.68975357 -10.64379883 3.03613281 C-6.99912374 0.43279346 -4.36345695 0.03314037 0 0 Z " fill="#000000" transform="translate(256.018798828125,15.8388671875)"/>
<path d="M0 0 C7.5763618 3.0458505 10.56666148 12.44584172 13.76806641 19.34667969 C15.73289512 23.57849864 17.73492704 27.79245692 19.74145508 32.00463867 C20.82292667 34.27732916 21.89709862 36.55350887 22.96362305 38.83325195 C23.45773682 39.87698975 23.95185059 40.92072754 24.4609375 41.99609375 C24.90228027 42.93638428 25.34362305 43.8766748 25.79833984 44.84545898 C26.81377293 47.14159927 26.81377293 47.14159927 29 48 C29.38865234 46.72962891 29.38865234 46.72962891 29.78515625 45.43359375 C31.07319002 41.79313818 32.67323847 38.4961703 34.4375 35.0625 C36.8103447 30.43468409 38.96712491 25.78606024 41 21 C42.10160528 18.61405871 43.22682752 16.23888451 44.375 13.875 C45.22191406 12.10769531 45.22191406 12.10769531 46.0859375 10.3046875 C48.69787511 5.79509727 51.68467046 2.87688636 56 0 C61.5294414 -0.81098474 66.39343051 -0.32101522 71 3 C73.94026236 6.44812586 75.08531966 8.75635755 74.76953125 13.359375 C74.00033703 16.99840553 72.94926988 19.70240697 71.25 23 C70.95198486 23.57903076 70.65396973 24.15806152 70.34692383 24.75463867 C63.05558578 38.71560039 55.08742853 52.35867804 46.9831543 65.8605957 C43.57227031 71.57856672 42.84048048 75.76692 42.75390625 82.32421875 C42.72094914 84.00977045 42.68773783 85.6953172 42.65429688 87.38085938 C42.60705354 90.02917865 42.56264927 92.6774806 42.52319336 95.32592773 C42.48316355 97.88807523 42.43167905 100.44980628 42.37890625 103.01171875 C42.3704921 103.79222092 42.36207794 104.57272308 42.35340881 105.37687683 C42.2103901 111.82656638 41.82053726 117.86086872 37.5 122.9375 C33.27635869 126.42200408 30.13766274 126.40003447 24.76953125 126.34375 C20.34138926 125.79413576 18.87422328 124.39010951 16 121 C13.79574374 115.97741484 13.86567605 111.73851306 14.11328125 106.39453125 C14.71623333 83.68816435 13.07506504 68.59074887 -0.15283203 49.68554688 C-2.69229261 45.99349475 -4.81670359 42.12916266 -6.9375 38.1875 C-7.62037835 36.96688692 -8.30645853 35.74805829 -8.99609375 34.53125 C-9.32206543 33.95503906 -9.64803711 33.37882812 -9.98388672 32.78515625 C-11.07777014 30.86336971 -12.18036332 28.94678451 -13.28515625 27.03125 C-13.65713135 26.38518799 -14.02910645 25.73912598 -14.41235352 25.07348633 C-15.42837026 23.31170645 -16.44840875 21.55224761 -17.46875 19.79296875 C-20.15968133 14.88476492 -20.15968133 14.88476492 -19.6171875 11.87890625 C-18.00293218 6.84073042 -16.69024561 3.88630499 -12 1 C-8.21353082 -0.89323459 -4.11588493 -0.58975727 0 0 Z " fill="#000000" transform="translate(532,16)"/>
<path d="M0 0 C0.88327469 -0.00281982 1.76654938 -0.00563965 2.67658997 -0.00854492 C4.12608284 -0.00550858 4.12608284 -0.00550858 5.6048584 -0.00241089 C7.13447456 -0.00503937 7.13447456 -0.00503937 8.69499207 -0.00772095 C12.07316783 -0.01213008 15.45129145 -0.00920474 18.82946777 -0.00582886 C21.17211924 -0.00650217 23.51477064 -0.00747242 25.85742188 -0.00872803 C30.77014836 -0.01020373 35.68285668 -0.00805452 40.59558105 -0.00338745 C46.90085547 0.00230975 53.20608732 -0.00096993 59.51136017 -0.00695992 C64.34967369 -0.01056895 69.18797707 -0.00942535 74.02629089 -0.00683212 C76.35157781 -0.00616381 78.67686564 -0.00698797 81.00215149 -0.00931168 C84.2486516 -0.01184378 87.49508223 -0.00798964 90.74157715 -0.00241089 C92.19107002 -0.00544724 92.19107002 -0.00544724 93.66984558 -0.00854492 C94.99475761 -0.00431519 94.99475761 -0.00431519 96.34643555 0 C97.49790195 0.00056554 97.49790195 0.00056554 98.67263031 0.0011425 C100.67321777 0.12698364 100.67321777 0.12698364 103.67321777 1.12698364 C103.72415509 7.38915512 103.75905062 13.65127265 103.78308105 19.91360474 C103.79310483 22.04155474 103.80672738 24.16949108 103.82409668 26.2973938 C103.84850469 29.36562482 103.85973739 32.43367285 103.86853027 35.50198364 C103.87885284 36.44501343 103.88917542 37.38804321 103.89981079 38.35964966 C103.90075154 43.96652876 103.26666989 48.74563669 101.67321777 54.12698364 C96.25810069 55.93933898 91.58364988 56.39823045 85.89587402 56.32229614 C85.08452499 56.31946625 84.27317596 56.31663635 83.4372406 56.3137207 C80.86991025 56.30261027 78.302941 56.27752336 75.73571777 56.25198364 C73.9850718 56.24194201 72.23442031 56.23281823 70.48376465 56.22463989 C66.21344523 56.20270098 61.94339253 56.16823524 57.67321777 56.12698364 C57.83402832 55.02539917 57.99483887 53.9238147 58.16052246 52.78884888 C59.20544248 45.32563201 59.74782546 37.78932464 55.67321777 31.12698364 C51.618719 26.62198501 47.24546772 23.77097393 41.21252441 22.68338013 C30.93164829 22.21432972 22.39293886 26.28777595 13.11071777 30.18948364 C10.65734754 31.20600705 8.20181414 32.21637154 5.74159241 33.21620178 C4.22138321 33.83543085 2.70530247 34.46491796 1.19407654 35.10575867 C-3.99225802 37.23849171 -3.99225802 37.23849171 -7.32678223 36.12698364 C-7.32678223 24.57698364 -7.32678223 13.02698364 -7.32678223 1.12698364 C-4.53950163 0.19789011 -2.87723941 0.00141315 0 0 Z " fill="#000000" transform="translate(120.3267822265625,44.873016357421875)"/>
<path d="M0 0 C0.97941559 -0.00700928 1.95883118 -0.01401855 2.96792603 -0.02124023 C6.20083074 -0.03882558 9.43285809 -0.02719605 12.66577148 -0.01367188 C14.91348946 -0.0163664 17.1612063 -0.0202485 19.40892029 -0.02526855 C24.11729034 -0.03116417 28.82535668 -0.02259749 33.53369141 -0.00390625 C39.57224191 0.0188961 45.6100818 0.00575198 51.6486063 -0.01819611 C56.28884753 -0.03264096 60.9289199 -0.02805428 65.56916618 -0.01768494 C67.79593935 -0.01501471 70.02272779 -0.01829774 72.24948311 -0.02760315 C75.35944448 -0.03774825 78.46824986 -0.022296 81.578125 0 C82.96140739 -0.01214539 82.96140739 -0.01214539 84.37263489 -0.02453613 C90.61286159 0.05845546 90.61286159 0.05845546 93.76475525 2.42492676 C96.36850076 6.15793192 96.35935406 8.53016967 96.34936523 13.08007812 C96.35323242 14.84544922 96.35323242 14.84544922 96.35717773 16.64648438 C96.22436523 19.51757812 96.22436523 19.51757812 95.22436523 20.51757812 C93.80990531 20.61524209 92.39060577 20.64389489 90.97277832 20.64456177 C90.05570602 20.64738159 89.13863373 20.65020142 88.19377136 20.65310669 C87.17970718 20.65108246 86.16564301 20.64905823 85.12084961 20.64697266 C84.05917068 20.64872498 82.99749176 20.65047729 81.90364075 20.65228271 C78.37511588 20.65670361 74.84664066 20.6537624 71.31811523 20.65039062 C68.87813304 20.6510636 66.43815091 20.65203356 63.99816895 20.65328979 C58.87678389 20.65476709 53.75541624 20.65261119 48.6340332 20.64794922 C42.05273809 20.64225192 35.47148374 20.64553076 28.89019012 20.65152168 C23.8495045 20.65512644 18.80882861 20.6539891 13.7681427 20.65139389 C11.34072363 20.65072438 8.91330368 20.65155386 6.48588562 20.65387344 C3.09986001 20.65639857 -0.28609855 20.65256134 -3.67211914 20.64697266 C-4.68618332 20.64899689 -5.7002475 20.65102112 -6.74504089 20.65310669 C-8.12064934 20.64887695 -8.12064934 20.64887695 -9.52404785 20.64456177 C-10.32563072 20.64418474 -11.12721359 20.64380772 -11.95308685 20.64341927 C-13.77563477 20.51757812 -13.77563477 20.51757812 -14.77563477 19.51757812 C-15.03799422 17.75393956 -15.23602522 15.98050967 -15.40063477 14.20507812 C-15.49602539 13.23957031 -15.59141602 12.2740625 -15.68969727 11.27929688 C-15.81651177 7.20393986 -15.66545638 5.47376759 -12.83436584 2.43151855 C-8.52885732 -0.26256818 -4.98418715 -0.04385803 0 0 Z " fill="#000000" transform="translate(127.775634765625,13.482421875)"/>
<path d="" fill="#000000" transform="translate(0,0)"/>
</svg>
