<?xml version="1.0" encoding="UTF-8"?>
<svg version="1.1" xmlns="http://www.w3.org/2000/svg" width="500" height="500">
<path d="M0 0 C2.54007216 3.81010824 2.25971552 6.84561532 2.21118164 11.2565918 C2.2098674 12.09939697 2.20855316 12.94220215 2.2071991 13.81054688 C2.20069182 16.60688359 2.18023172 19.40294935 2.16015625 22.19921875 C2.15388103 24.15199996 2.14864254 26.10478474 2.14439392 28.05757141 C2.13106669 33.21523822 2.1066517 38.37278749 2.07904053 43.53039551 C2.03603748 51.73842284 2.00593842 59.94647535 1.9829998 68.15458107 C1.9729144 71.00135185 1.95583622 73.84801662 1.93800354 76.69474792 C1.89887996 84.7579173 1.92186842 92.81516382 2.31420898 100.87036133 C2.4008506 102.6928112 2.4008506 102.6928112 2.48924255 104.55207825 C3.33755113 110.2786743 5.50942841 114.9484271 9.375 119.3125 C9.93960938 119.96863281 10.50421875 120.62476563 11.0859375 121.30078125 C16.43304754 126.04770547 23.63474309 125.9970209 30.44140625 125.77734375 C40.8349532 124.80170064 50.51748243 119.50185714 59.94042969 115.31982422 C63.7977889 113.65585327 67.70200503 112.25694861 71.6875 110.9375 C78.2322609 108.72139933 84.57662857 106.13385877 90.9375 103.4375 C100.46622731 99.4068084 110.06301576 95.58213059 119.72122192 91.87478638 C121.22696691 91.29675501 122.7320869 90.71709262 124.23654175 90.13571167 C126.36409417 89.31448812 128.49408948 88.49996449 130.625 87.6875 C131.85476563 87.21699219 133.08453125 86.74648438 134.3515625 86.26171875 C144.39944625 82.78691527 157.35101249 79.30324247 167.5 83.875 C174.94024968 88.39184635 180.16191464 94.8001426 183 103 C183.42121155 105.99298229 183.46552351 108.91860334 183.4375 111.9375 C183.45748047 112.69740234 183.47746094 113.45730469 183.49804688 114.24023438 C183.49050763 123.06868591 179.39619229 129.35730872 173.52734375 135.70703125 C169.02360189 139.79311544 163.873636 142.86372888 158.68261719 145.98730469 C149.42430347 151.55948769 140.54477969 157.6917561 131.6484375 163.81640625 C130.09919448 164.87794888 128.54971235 165.93914263 127 167 C126.16887695 167.57347168 125.33775391 168.14694336 124.48144531 168.73779297 C123.67545898 169.28709473 122.86947266 169.83639648 122.0390625 170.40234375 C121.31154785 170.90113037 120.5840332 171.39991699 119.83447266 171.91381836 C118 173 118 173 116 173 C116 173.66 116 174.32 116 175 C117.16724861 175.01213028 117.16724861 175.01213028 118.358078 175.02450562 C125.70002312 175.10252272 133.04177154 175.18983468 140.38347912 175.28752708 C144.15771513 175.33742269 147.93192407 175.3837531 151.70629883 175.421875 C155.35039093 175.45881322 158.99425276 175.50519591 162.63814735 175.55806351 C164.02672591 175.57656221 165.41535374 175.59168682 166.80400658 175.60334396 C168.75249335 175.62028326 170.7008514 175.6504508 172.64916992 175.68115234 C174.31129768 175.70113785 174.31129768 175.70113785 176.00700378 175.7215271 C179.81984415 176.07627954 182.73037866 177.00244038 185.75 179.375 C188.0447685 182.35819905 188.12745627 185.67182596 188.16113281 189.33447266 C188.17074036 190.1828067 188.1803479 191.03114075 188.19024658 191.90518188 C188.1966214 193.27082779 188.1966214 193.27082779 188.203125 194.6640625 C188.20882507 195.61131195 188.21452515 196.5585614 188.22039795 197.53451538 C188.22983827 199.54008878 188.23637809 201.54567762 188.24023438 203.55126953 C188.24989851 206.59305598 188.28091407 209.63415447 188.3125 212.67578125 C188.31903486 214.63020435 188.32428343 216.58463225 188.328125 218.5390625 C188.3404718 219.43734772 188.3528186 220.33563293 188.36553955 221.26113892 C188.33571323 229.88024591 186.6511719 238.24998911 181 245 C174.97289636 250.38134253 167.67591773 253.73800627 159.5078125 253.49609375 C153.14980272 252.23835661 147.33703271 248.55802181 142 245 C141.01 245 140.02 245 139 245 C137.5195121 246.60065002 137.5195121 246.60065002 136.1875 248.6875 C132.02068553 254.49640884 127.17463602 259.23640232 120 261 C110.91767985 262.3181887 103.42075031 260.45805558 96 255 C94.1412609 252.66232199 92.71288599 250.42577199 91.37890625 247.7578125 C90.10966159 245.73177091 90.10966159 245.73177091 87.52734375 245.59375 C83.76552649 246.1984316 81.82384066 248.52913942 79 251 C72.75586533 254.16573261 65.78627462 253.79504473 59 253 C50.68968732 249.77084993 44.10093015 241.71939793 40 234 C35.79597266 234.91125443 32.43242085 236.91390294 28.75 239.0625 C-9.61057955 260.92461233 -47.30576742 264.17050978 -90.80810547 264.24023438 C-94.55066621 264.25013402 -98.29271899 264.28137382 -102.03515625 264.3125 C-104.4296843 264.31901491 -106.82421619 264.32427127 -109.21875 264.328125 C-110.33012329 264.3404718 -111.44149658 264.3528186 -112.58654785 264.36553955 C-113.61953003 264.36253845 -114.65251221 264.35953735 -115.71679688 264.35644531 C-116.61942261 264.36009094 -117.52204834 264.36373657 -118.45202637 264.36749268 C-122.50490234 263.78294886 -125.1475344 261.8524656 -128 259 C-129.31832468 255.39691939 -129.13156494 251.74565215 -129.14044189 247.94691467 C-129.14341302 247.23648669 -129.14638414 246.52605871 -129.1494453 245.79410261 C-129.15811695 243.41358576 -129.15963923 241.03311928 -129.16113281 238.65258789 C-129.16576197 236.94584547 -129.17078676 235.23910408 -129.17617798 233.53236389 C-129.18929213 228.89604965 -129.19574468 224.25974989 -129.20018864 219.62342 C-129.20312015 216.7274495 -129.20722504 213.83148296 -129.21169281 210.93551445 C-129.22536337 201.87622631 -129.23503294 192.81694722 -129.2388947 183.75764948 C-129.24337851 173.29655895 -129.26094321 162.83559888 -129.2898953 152.37454802 C-129.31149587 144.28952772 -129.32159807 136.20454418 -129.32293582 128.11949533 C-129.32398475 123.28977247 -129.3299116 118.46017232 -129.34775543 113.63047981 C-129.36420867 109.08899316 -129.36640503 104.54772185 -129.35761642 100.00621605 C-129.35684465 98.33931019 -129.36120722 96.67239288 -129.37107468 95.00551605 C-129.38375492 92.7301094 -129.37793937 90.45547005 -129.36749268 88.18006897 C-129.36895924 86.90673738 -129.3704258 85.63340578 -129.3719368 84.32148838 C-128.69981242 78.31925004 -125.5068288 75.24831125 -121.03515625 71.62060547 C-119.14618935 70.11641134 -117.23147387 68.6621502 -115.29296875 67.22265625 C-110.98099901 63.99998438 -106.73897985 60.69274757 -102.5 57.375 C-95.95187824 52.26460179 -89.35257604 47.23179268 -82.69604492 42.26367188 C-78.54479444 39.1638502 -74.41616784 36.0375451 -70.3125 32.875 C-69.78672363 32.47063721 -69.26094727 32.06627441 -68.71923828 31.6496582 C-66.06619378 29.60591947 -63.42457467 27.54879442 -60.796875 25.47265625 C-43.58893102 11.93483797 -23.11625023 -3.08437772 0 0 Z " fill="#010101" transform="translate(155,187)"/>
<path d="M0 0 C1.15041863 -0.00085442 2.30083726 -0.00170885 3.48611706 -0.00258917 C7.30140459 -0.0042228 11.11664714 0.00124241 14.93193054 0.00672913 C17.68258186 0.00757012 20.43323234 0.00689624 23.18388367 0.00628662 C29.08556894 0.00576466 34.98724308 0.00887709 40.88892555 0.01452446 C49.42155428 0.02268405 57.95417767 0.02525923 66.48680987 0.02651245 C80.33359142 0.02869599 94.18036705 0.03533709 108.02714539 0.04481506 C121.47050446 0.05400728 134.91386192 0.06107925 148.35722351 0.06532288 C149.18717987 0.0655856 150.01713623 0.06584832 150.87224279 0.06611901 C155.03628041 0.06742413 159.20031804 0.06868782 163.36435568 0.06993091 C197.85783216 0.08028177 232.35130161 0.09788102 266.84477234 0.12025452 C268.96035365 3.96832788 269.12259489 7.20507975 269.08769226 11.52357483 C269.08955662 12.26722919 269.09142097 13.01088356 269.09334183 13.77707291 C269.09697453 16.25094453 269.08620719 18.72453281 269.07524109 21.19837952 C269.07455386 22.94687385 269.0746558 24.69536865 269.07550049 26.44386292 C269.07476406 31.12063237 269.06075155 35.79726708 269.04281616 40.47399902 C269.03229949 43.36279653 269.02466787 46.25158736 269.01799011 49.14039612 C268.98914783 61.31363922 268.93286756 73.48657364 268.85913849 85.65962219 C268.84567297 87.965994 268.83375144 90.27236651 268.82261658 92.57875061 C268.78779642 99.68399015 268.73466079 106.78843155 268.63423157 113.89308167 C268.60815504 115.86053856 268.58816763 117.82808663 268.57460022 119.79566956 C268.5536937 122.46187308 268.50792617 125.12641468 268.45414734 127.79212952 C268.45290359 128.53410583 268.45165985 129.27608215 268.45037842 130.0405426 C268.28162751 135.97084554 266.48096477 141.18261591 262.46873474 145.65364075 C252.8949473 154.22245143 237.52448672 152.27891461 225.54399109 152.20619202 C224.30259872 152.20219391 223.06120636 152.1981958 221.78219604 152.19407654 C217.80297509 152.17759545 213.82389813 152.15150605 209.84477234 152.12025452 C209.18257942 152.11518387 208.52038651 152.11011322 207.83812714 152.10488892 C199.12653319 152.03638637 190.41576704 151.93250952 181.70487976 151.8028717 C178.95817592 151.76246185 176.21148545 151.72809619 173.46464539 151.69837952 C169.43099608 151.65471382 165.39772982 151.59523012 161.36430359 151.53431702 C160.1313002 151.52276581 158.89829681 151.5112146 157.62792969 151.49931335 C156.50041794 151.47944366 155.37290619 151.45957397 154.21122742 151.43910217 C153.21948013 151.4257785 152.22773285 151.41245483 151.20593262 151.39872742 C148.84477234 151.12025452 148.84477234 151.12025452 146.84477234 149.12025452 C147.05997227 143.20225636 148.72301521 138.30789555 150.90727234 132.83119202 C156.17624743 117.59507239 151.61624664 101.09094677 145.29789734 86.89369202 C138.48471113 73.89003016 126.7302093 65.84404502 113.08695984 61.11634827 C96.06765897 55.88752691 82.37102055 56.03570125 65.84477234 62.12025452 C64.60469421 62.55466858 63.36461609 62.98908264 62.08695984 63.43666077 C52.9820507 66.68227785 44.16549551 70.55516615 35.32377625 74.45155334 C29.98020568 76.79535577 24.6430644 79.00790434 19.15727234 80.99525452 C7.81418895 85.11784575 -3.20579839 90.07885575 -14.27119446 94.88685608 C-15.22292542 95.29387756 -16.17465637 95.70089905 -17.15522766 96.12025452 C-18.00190002 96.52469788 -18.84857239 96.92914124 -19.72090149 97.34584045 C-22.61264273 98.26576857 -24.24497143 97.80001853 -27.15522766 97.12025452 C-27.20149308 84.89873418 -27.23706731 72.67723456 -27.25885201 60.45564461 C-27.26930561 54.78115377 -27.28349349 49.10672268 -27.30610657 43.43226624 C-27.32777883 37.95987737 -27.3397844 32.4875461 -27.34498215 27.01511765 C-27.34868803 24.92344633 -27.3559243 22.83177829 -27.36668777 20.74013138 C-27.38112807 17.81875453 -27.38320874 14.89761813 -27.38227844 11.97621155 C-27.38946899 11.10443268 -27.39665955 10.23265381 -27.40406799 9.3344574 C-27.38333198 3.34835884 -27.38333198 3.34835884 -25.15522766 1.12025452 C-16.88982594 -0.17675893 -8.34967203 -0.0232138 0 0 Z " fill="#010101" transform="translate(216.1552276611328,179.87974548339844)"/>
<path d="M0 0 C6.2412399 -0.01008744 12.48243096 -0.02777412 18.72364366 -0.04852492 C26.40107038 -0.07383443 34.0784252 -0.08815925 41.75589514 -0.08864164 C45.72119882 -0.08912942 49.68634446 -0.09442029 53.65161073 -0.11240393 C57.3137472 -0.12880161 60.97561769 -0.13112557 64.63777792 -0.12238401 C66.60010707 -0.12128432 68.56242721 -0.13498202 70.52470529 -0.14918047 C77.42191223 -0.11633543 82.29637083 0.18333359 87.80500352 4.70785326 C95.37874864 13.34234699 95.50010514 23.52933357 95.40314806 34.49667162 C95.38688198 36.6933307 95.40316433 38.8881987 95.42219102 41.08480638 C95.42021155 42.48780522 95.41637401 43.89080294 95.41047227 45.29379076 C95.40708848 46.55505785 95.4037047 47.81632494 95.40021837 49.11581224 C95.01203477 52.23519701 95.01203477 52.23519701 93.86084592 53.90719026 C91.21816809 55.8054339 89.28013357 55.60705476 86.04287279 55.60268968 C84.79042614 55.6082623 83.5379795 55.61383491 82.24757993 55.61957639 C80.85241264 55.61054622 79.45724721 55.60122458 78.0620836 55.59164232 C76.58906407 55.5924047 75.11604472 55.59447275 73.64302862 55.59774297 C69.60311511 55.60283899 65.56345177 55.58910273 61.52357852 55.57217139 C57.21121356 55.55723243 52.8988533 55.55928707 48.58646715 55.55915636 C40.22775954 55.5560321 31.86916952 55.5364234 23.51050436 55.51055169 C16.77498538 55.48993686 10.03947713 55.47512191 3.30393541 55.4643535 C-20.75838684 55.42539449 -44.82048611 55.3559782 -68.88266581 55.2650609 C-74.95425907 55.24226386 -81.025856 55.22165785 -87.0974623 55.20266527 C-104.57957307 55.14764369 -122.06142309 55.07654968 -139.5432936 54.96871752 C-144.70862703 54.93686327 -149.87393783 54.91090948 -155.03932631 54.88986009 C-161.02802552 54.8645891 -167.01643757 54.82461114 -173.0049597 54.77226251 C-175.16522761 54.75558793 -177.32554041 54.743867 -179.48586333 54.73751444 C-182.3909287 54.7280268 -185.29524106 54.70031766 -188.20012343 54.66757005 C-189.04271303 54.6690064 -189.88530262 54.67044275 -190.75342524 54.67192262 C-194.05459129 54.61820354 -196.55053827 54.46336857 -199.50485671 52.9223308 C-201.91914753 50.1759157 -201.55805486 47.04494541 -201.51921523 43.56722826 C-201.52304213 42.81358492 -201.52686903 42.05994158 -201.53081191 41.28346056 C-201.53353346 39.68719964 -201.52615507 38.09089431 -201.5094496 36.49471849 C-201.48818904 34.07318889 -201.50916173 31.65467658 -201.53484023 29.23324388 C-201.55214356 20.23906638 -201.40207793 13.23785807 -195.17155898 6.17660326 C-194.59534804 5.7215642 -194.0191371 5.26652513 -193.42546523 4.79769701 C-192.84667616 4.32461107 -192.2678871 3.85152513 -191.67155898 3.36410326 C-187.74057504 0.72824628 -183.58010391 1.06372791 -179.04118788 1.02987474 C-178.21678206 1.01998647 -177.39237624 1.01009821 -176.54298842 0.9999103 C-173.74603138 0.96788974 -170.94906083 0.9432122 -168.15202773 0.91879076 C-166.11893391 0.89786659 -164.08584273 0.87668492 -162.05275404 0.85526842 C-155.23955767 0.7860208 -148.42627828 0.72906593 -141.61296523 0.67269701 C-139.24333615 0.65233077 -136.87370725 0.63194489 -134.50407851 0.61153978 C-89.6703399 0.23257928 -44.83519546 0.06754259 0 0 Z " fill="#000000" transform="translate(389.9879652261734,92.7648029923439)"/>
<path d="M0 0 C3.15296313 12.6118525 0.37127706 26.00530288 0 39 C96.03 39 192.06 39 291 39 C291 26.79 291 14.58 291 2 C295.97928815 6.97928815 294.22270393 16.25338519 294.24023438 22.88427734 C294.25000019 25.12504372 294.28108807 27.36491486 294.3125 29.60546875 C294.31902529 31.03124458 294.32427762 32.45702693 294.328125 33.8828125 C294.3374707 35.17590332 294.34681641 36.46899414 294.35644531 37.80126953 C294 41 294 41 292.85079479 42.67695236 C290.20605234 44.56755648 288.26567939 44.37185449 285.03083801 44.36749268 C283.77839137 44.37306529 282.52594473 44.37863791 281.23554516 44.38437939 C279.84037787 44.37534922 278.44521244 44.36602757 277.05004883 44.35644531 C275.57702929 44.35720769 274.10400995 44.35927574 272.63099384 44.36254597 C268.59108033 44.36764198 264.551417 44.35390572 260.51154375 44.33697438 C256.19917879 44.32203542 251.88681853 44.32409007 247.57443237 44.32395935 C239.21572477 44.32083509 230.85713475 44.3012264 222.49846959 44.27535468 C215.7629506 44.25473985 209.02744236 44.23992491 202.29190063 44.22915649 C178.22957838 44.19019748 154.16747911 44.12078119 130.10529941 44.02986389 C124.03370615 44.00706685 117.96210922 43.98646084 111.89050293 43.96746826 C94.40839215 43.91244668 76.92654213 43.84135267 59.44467163 43.73352051 C54.2793382 43.70166627 49.1140274 43.67571247 43.94863892 43.65466309 C37.95993971 43.62939209 31.97152766 43.58941413 25.98300552 43.53706551 C23.82273762 43.52039092 21.66242482 43.50866999 19.5021019 43.50231743 C16.59703653 43.49282979 13.69272416 43.46512066 10.7878418 43.43237305 C9.9452522 43.43380939 9.1026626 43.43524574 8.23453999 43.43672562 C4.93441812 43.38302352 2.43622183 43.22684846 -0.51887512 41.69010925 C-2.94911132 38.91697058 -2.52947492 35.72907944 -2.4609375 32.2265625 C-2.46002106 31.46580414 -2.45910461 30.70504578 -2.4581604 29.92123413 C-2.45212128 28.31233482 -2.43636569 26.70344692 -2.41162109 25.09472656 C-2.37523504 22.64085091 -2.37060096 20.18849162 -2.37109375 17.734375 C-2.3612573 16.16925787 -2.349598 14.60415092 -2.3359375 13.0390625 C-2.33371185 12.30869781 -2.33148621 11.57833313 -2.32919312 10.82583618 C-2.25465282 6.79107037 -1.78178207 3.63554636 0 0 Z " fill="#646464" transform="translate(191,104)"/>
<path d="M0 0 C1.15041863 -0.00085442 2.30083726 -0.00170885 3.48611706 -0.00258917 C7.30140459 -0.0042228 11.11664714 0.00124241 14.93193054 0.00672913 C17.68258186 0.00757012 20.43323234 0.00689624 23.18388367 0.00628662 C29.08556894 0.00576466 34.98724308 0.00887709 40.88892555 0.01452446 C49.42155428 0.02268405 57.95417767 0.02525923 66.48680987 0.02651245 C80.33359142 0.02869599 94.18036705 0.03533709 108.02714539 0.04481506 C121.47050446 0.05400728 134.91386192 0.06107925 148.35722351 0.06532288 C149.18717987 0.0655856 150.01713623 0.06584832 150.87224279 0.06611901 C155.03628041 0.06742413 159.20031804 0.06868782 163.36435568 0.06993091 C197.85783216 0.08028177 232.35130161 0.09788102 266.84477234 0.12025452 C268.96035365 3.96832788 269.12259489 7.20507975 269.08769226 11.52357483 C269.08955662 12.26722919 269.09142097 13.01088356 269.09334183 13.77707291 C269.09697453 16.25094453 269.08620719 18.72453281 269.07524109 21.19837952 C269.07455386 22.94687385 269.0746558 24.69536865 269.07550049 26.44386292 C269.07476406 31.12063237 269.06075155 35.79726708 269.04281616 40.47399902 C269.03229949 43.36279653 269.02466787 46.25158736 269.01799011 49.14039612 C268.98914783 61.31363922 268.93286756 73.48657364 268.85913849 85.65962219 C268.84567297 87.965994 268.83375144 90.27236651 268.82261658 92.57875061 C268.78779642 99.68399015 268.73466079 106.78843155 268.63423157 113.89308167 C268.60815504 115.86053856 268.58816763 117.82808663 268.57460022 119.79566956 C268.5536937 122.46187308 268.50792617 125.12641468 268.45414734 127.79212952 C268.45290359 128.53410583 268.45165985 129.27608215 268.45037842 130.0405426 C268.28162751 135.97084554 266.48096477 141.18261591 262.46873474 145.65364075 C252.8949473 154.22245143 237.52448672 152.27891461 225.54399109 152.20619202 C224.30259872 152.20219391 223.06120636 152.1981958 221.78219604 152.19407654 C217.80297509 152.17759545 213.82389813 152.15150605 209.84477234 152.12025452 C209.18257942 152.11518387 208.52038651 152.11011322 207.83812714 152.10488892 C199.12653319 152.03638637 190.41576704 151.93250952 181.70487976 151.8028717 C178.95817592 151.76246185 176.21148545 151.72809619 173.46464539 151.69837952 C169.43099608 151.65471382 165.39772982 151.59523012 161.36430359 151.53431702 C160.1313002 151.52276581 158.89829681 151.5112146 157.62792969 151.49931335 C156.50041794 151.47944366 155.37290619 151.45957397 154.21122742 151.43910217 C153.21948013 151.4257785 152.22773285 151.41245483 151.20593262 151.39872742 C148.84477234 151.12025452 148.84477234 151.12025452 146.84477234 149.12025452 C147.05997227 143.20225636 148.72301521 138.30789555 150.90727234 132.83119202 C156.10183031 117.81026188 151.68943362 102.00588062 145.57914734 87.97572327 C144.84477234 86.12025452 144.84477234 86.12025452 144.84477234 84.12025452 C145.50477234 84.12025452 146.16477234 84.12025452 146.84477234 84.12025452 C154.62752253 99.4704219 158.76415493 118.94677413 153.71977234 135.90150452 C152.34477234 138.74525452 152.34477234 138.74525452 150.93852234 140.97181702 C149.51242496 143.77307972 149.77071455 146.01564625 149.84477234 149.12025452 C162.71038366 149.21311813 175.57591465 149.2841027 188.44179344 149.3275032 C194.41657259 149.348338 200.39112167 149.37658087 206.36576843 149.42201233 C212.13646823 149.46561613 217.90694734 149.4894225 223.67779922 149.49976349 C225.87452796 149.50712876 228.07124523 149.52151124 230.26787949 149.54317474 C233.35545788 149.5724015 236.44213549 149.57620243 239.52983093 149.57435608 C240.87851257 149.59592773 240.87851257 149.59592773 242.25444031 149.61793518 C248.68322934 149.57659833 254.17898536 148.24148679 259.84477234 145.12025452 C291.16007607 109.10765522 266.48047958 49.84260616 266.84477234 2.12025452 C170.48477234 2.12025452 74.12477234 2.12025452 -25.15522766 2.12025452 C-25.15522766 1.79025452 -25.15522766 1.46025452 -25.15522766 1.12025452 C-16.75162114 0.37420761 -8.43511922 -0.02345136 0 0 Z " fill="#B3B3B3" transform="translate(216.1552276611328,179.87974548339844)"/>
<path d="M0 0 C0.66 0.33 1.32 0.66 2 1 C-1.1326492 6.09055495 -3.42466509 8.57750974 -8.87109375 10.96484375 C-13.40233401 13.16810736 -17.44791878 16.44791878 -21 20 C-21.3091437 23.16761449 -21.3091437 23.16761449 -21.26069641 26.97116089 C-21.26452196 27.6969198 -21.26834751 28.4226787 -21.27228898 29.1704303 C-21.28265007 31.61483212 -21.278621 34.0590004 -21.2746582 36.50341797 C-21.27900301 38.25089741 -21.28418538 39.99837494 -21.29014587 41.74584961 C-21.30357316 46.50206776 -21.30411034 51.25820664 -21.30158257 56.01444006 C-21.30051522 59.98075381 -21.30539025 63.94705137 -21.310188 67.91336167 C-21.32129642 77.26923903 -21.32171332 86.62507626 -21.31567383 95.98095703 C-21.30963394 105.64101717 -21.32194238 115.30093166 -21.3432439 124.96096694 C-21.36084413 133.24636099 -21.36686369 141.53170861 -21.36360615 149.81712067 C-21.36179038 154.7692327 -21.36445859 159.72124088 -21.37832069 164.67333603 C-21.39086852 169.33053405 -21.38898389 173.98750469 -21.37590981 178.6446991 C-21.37353768 180.35555726 -21.37630137 182.06643127 -21.38453293 183.77727127 C-21.39494885 186.11007091 -21.38694186 188.44210035 -21.3742218 190.77487183 C-21.37438954 192.08122023 -21.37455729 193.38756863 -21.37473011 194.73350334 C-20.97792315 198.19244237 -20.52151863 199.63323518 -18 202 C-15.3653403 202.41160847 -13.13750918 202.56436746 -10.49926758 202.54589844 C-9.3574427 202.56140495 -9.3574427 202.56140495 -8.19255066 202.57722473 C-5.67633008 202.60672394 -3.16091138 202.60815335 -0.64453125 202.609375 C1.099976 202.62435192 2.84446905 202.64107803 4.58894348 202.65948486 C9.18057902 202.70322579 13.77202328 202.7231723 18.36383057 202.73822021 C23.04930972 202.7577671 27.73458156 202.79973975 32.41992188 202.83984375 C41.61321741 202.91521878 50.80646671 202.965466 60 203 C60 203.33 60 203.66 60 204 C44.7291575 204.89266752 29.48806301 205.21571801 14.19189453 205.24023438 C10.44933379 205.25013402 6.70728101 205.28137382 2.96484375 205.3125 C0.5703157 205.31901491 -1.82421619 205.32427127 -4.21875 205.328125 C-5.33012329 205.3404718 -6.44149658 205.3528186 -7.58654785 205.36553955 C-8.61953003 205.36253845 -9.65251221 205.35953735 -10.71679688 205.35644531 C-11.61942261 205.36009094 -12.52204834 205.36373657 -13.45202637 205.36749268 C-17.50490234 204.78294886 -20.1475344 202.8524656 -23 200 C-24.31832468 196.39691939 -24.13156494 192.74565215 -24.14044189 188.94691467 C-24.14341302 188.23648669 -24.14638414 187.52605871 -24.1494453 186.79410261 C-24.15811695 184.41358576 -24.15963923 182.03311928 -24.16113281 179.65258789 C-24.16576197 177.94584547 -24.17078676 176.23910408 -24.17617798 174.53236389 C-24.18929213 169.89604965 -24.19574468 165.25974989 -24.20018864 160.62342 C-24.20312015 157.7274495 -24.20722504 154.83148296 -24.21169281 151.93551445 C-24.22536337 142.87622631 -24.23503294 133.81694722 -24.2388947 124.75764948 C-24.24337851 114.29655895 -24.26094321 103.83559888 -24.2898953 93.37454802 C-24.31149587 85.28952772 -24.32159807 77.20454418 -24.32293582 69.11949533 C-24.32398475 64.28977247 -24.3299116 59.46017232 -24.34775543 54.63047981 C-24.36420867 50.08899316 -24.36640503 45.54772185 -24.35761642 41.00621605 C-24.35684465 39.33931019 -24.36120722 37.67239288 -24.37107468 36.00551605 C-24.38375492 33.7301094 -24.37793937 31.45547005 -24.36749268 29.18006897 C-24.36895924 27.90673738 -24.3704258 26.63340578 -24.3719368 25.32148838 C-23.81173927 20.31878472 -21.64266337 17.20123245 -17.8125 14.0625 C-17.20148437 13.55976563 -16.59046875 13.05703125 -15.9609375 12.5390625 C-13.31880168 10.46535431 -10.63495465 8.45277351 -7.93359375 6.45703125 C-5.20385258 4.40007478 -2.6039406 2.21334951 0 0 Z " fill="#D2D2D2" transform="translate(50,246)"/>
<path d="M0 0 C6.2412399 -0.01008744 12.48243096 -0.02777412 18.72364366 -0.04852492 C26.40107038 -0.07383443 34.0784252 -0.08815925 41.75589514 -0.08864164 C45.72119882 -0.08912942 49.68634446 -0.09442029 53.65161073 -0.11240393 C57.3137472 -0.12880161 60.97561769 -0.13112557 64.63777792 -0.12238401 C66.60010707 -0.12128432 68.56242721 -0.13498202 70.52470529 -0.14918047 C77.50659863 -0.11593214 82.52224736 0.13316375 87.94562852 4.95394701 C88.44191759 5.54175951 88.93820665 6.12957201 89.44953477 6.73519701 C90.22103868 7.61691576 90.22103868 7.61691576 91.00812852 8.51644701 C91.50506212 9.36722826 91.50506212 9.36722826 92.01203477 10.23519701 C91.68203477 11.22519701 91.35203477 12.21519701 91.01203477 13.23519701 C90.61371446 12.68090013 90.21539415 12.12660326 89.80500352 11.55550951 C89.27519884 10.83105638 88.74539415 10.10660326 88.19953477 9.36019701 C87.67746446 8.64090013 87.15539415 7.92160326 86.61750352 7.18050951 C84.66001321 4.80865993 83.03099787 3.35550414 79.90819138 2.98680001 C78.67960625 2.98793918 78.67960625 2.98793918 77.42620122 2.98910135 C76.0064663 2.9831282 76.0064663 2.9831282 74.55804986 2.97703439 C73.51623234 2.98286007 72.47441483 2.98868576 71.40102708 2.99468797 C70.29590467 2.99297912 69.19078226 2.99127028 68.05217129 2.98950964 C64.33015007 2.98620198 60.6083071 2.99723953 56.88630235 3.00814623 C54.225791 3.00871007 51.56529074 3.00848249 48.90478075 3.00726122 C43.16715003 3.00621156 37.42956473 3.01249659 31.69194543 3.02373689 C23.39627655 3.03997799 15.10062968 3.04519847 6.80494662 3.04771288 C-6.65362434 3.05209217 -20.11217109 3.06540761 -33.5707289 3.0843181 C-46.64592298 3.10267085 -59.72111048 3.11683031 -72.79631484 3.12533373 C-74.00486579 3.1261219 -74.00486579 3.1261219 -75.23783191 3.12692599 C-79.27971921 3.12953603 -83.32160655 3.13206345 -87.36349392 3.1345498 C-120.90500192 3.15528958 -154.44648061 3.19052147 -187.98796523 3.23519701 C-187.98796523 3.89519701 -187.98796523 4.55519701 -187.98796523 5.23519701 C-188.89546523 5.66832201 -189.80296523 6.10144701 -190.73796523 6.54769701 C-193.42014971 7.94036972 -195.64936127 9.34632458 -197.98796523 11.23519701 C-196.42785945 7.0229114 -193.50342593 4.88972856 -189.98796523 2.23519701 C-186.30326505 1.00696361 -182.8804787 1.0585098 -179.04118788 1.02987474 C-178.21678206 1.01998647 -177.39237624 1.01009821 -176.54298842 0.9999103 C-173.74603138 0.96788974 -170.94906083 0.9432122 -168.15202773 0.91879076 C-166.11893391 0.89786659 -164.08584273 0.87668492 -162.05275404 0.85526842 C-155.23955767 0.7860208 -148.42627828 0.72906593 -141.61296523 0.67269701 C-139.24333615 0.65233077 -136.87370725 0.63194489 -134.50407851 0.61153978 C-89.6703399 0.23257928 -44.83519546 0.06754259 0 0 Z " fill="#C1C1C1" transform="translate(389.9879652261734,92.7648029923439)"/>
<path d="M0 0 C3.88817506 3.88817506 3.12830514 9.22587447 3.1328125 14.453125 C3.13424759 15.50436554 3.13424759 15.50436554 3.13571167 16.57684326 C3.13638915 18.04927664 3.13456512 19.52171307 3.13037109 20.99414062 C3.12498434 23.25657758 3.13034709 25.51881891 3.13671875 27.78125 C3.13605852 29.21354211 3.13477851 30.64583409 3.1328125 32.078125 C3.13168457 33.38168945 3.13055664 34.68525391 3.12939453 36.02832031 C3 39 3 39 2 40 C0.43615425 40.09697192 -1.13208815 40.12371657 -2.69893742 40.12304783 C-4.23287634 40.1260344 -4.23287634 40.1260344 -5.79780394 40.12908131 C-7.50350645 40.12471205 -7.50350645 40.12471205 -9.2436676 40.12025452 C-10.44100287 40.12110894 -11.63833814 40.12196337 -12.87195629 40.12284368 C-16.21037969 40.12421189 -19.54874518 40.12106435 -22.88716161 40.11606562 C-26.48158799 40.11176448 -30.07601245 40.1132073 -33.67044067 40.1139679 C-39.90300995 40.11449335 -46.1355688 40.11134436 -52.36813545 40.10573006 C-61.37948339 40.09761789 -70.39082625 40.09500013 -79.40217745 40.09374207 C-94.02096947 40.0915511 -108.63975592 40.08488981 -123.25854492 40.07543945 C-137.46297172 40.06626649 -151.66739701 40.05918509 -165.87182617 40.05493164 C-166.74675315 40.05466892 -167.62168013 40.05440619 -168.52312005 40.05413551 C-172.91218229 40.05283051 -177.30124453 40.05156679 -181.69030678 40.05032361 C-218.12687512 40.0399496 -254.56343713 40.02233008 -291 40 C-291.33 39.34 -291.66 38.68 -292 38 C-195.64 38.33 -99.28 38.66 0 39 C0 26.13 0 13.26 0 0 Z " fill="#4D4D4D" transform="translate(482,106)"/>
<path d="M0 0 C0.6194751 0.18860596 1.2389502 0.37721191 1.87719727 0.5715332 C-0.57747873 2.24381856 -3.03619947 3.9095018 -5.49780273 5.5715332 C-6.54581055 6.28696289 -6.54581055 6.28696289 -7.61499023 7.0168457 C-8.28530273 7.46801758 -8.95561523 7.91918945 -9.64624023 8.3840332 C-10.26418457 8.80297852 -10.88212891 9.22192383 -11.51879883 9.65356445 C-13.12280273 10.5715332 -13.12280273 10.5715332 -15.12280273 10.5715332 C-15.12280273 11.2315332 -15.12280273 11.8915332 -15.12280273 12.5715332 C-14.34463699 12.57962006 -13.56647125 12.58770691 -12.76472473 12.59603882 C-5.42277961 12.67405592 1.91896881 12.76136788 9.26067638 12.85906029 C13.0349124 12.90895589 16.80912134 12.9552863 20.58349609 12.9934082 C24.2275882 13.03034643 27.87145003 13.07672911 31.51534462 13.12959671 C32.90392317 13.14809541 34.292551 13.16322002 35.68120384 13.17487717 C37.62969061 13.19181646 39.57804867 13.22198401 41.52636719 13.25268555 C43.18849495 13.27267105 43.18849495 13.27267105 44.88420105 13.2930603 C48.69704142 13.64781274 51.60757593 14.57397358 54.62719727 16.9465332 C56.92196576 19.92973225 57.00465354 23.24335916 57.03833008 26.90600586 C57.04793762 27.7543399 57.05754517 28.60267395 57.06744385 29.47671509 C57.07169373 30.38714569 57.0759436 31.29757629 57.08032227 32.2355957 C57.08602234 33.18284515 57.09172241 34.1300946 57.09759521 35.10604858 C57.10703554 37.11162198 57.11357535 39.11721083 57.11743164 41.12280273 C57.12709578 44.16458918 57.15811133 47.20568768 57.18969727 50.24731445 C57.19623212 52.20173755 57.20148069 54.15616546 57.20532227 56.1105957 C57.21766907 57.00888092 57.23001587 57.90716614 57.24273682 58.83267212 C57.21291049 67.45177911 55.52836917 75.82152232 49.87719727 82.5715332 C43.85364624 87.94970377 36.55698762 91.31026823 28.39282227 91.06762695 C23.14954484 90.03362659 18.37681664 87.39109989 13.87719727 84.5715332 C13.38219727 83.5815332 13.38219727 83.5815332 12.87719727 82.5715332 C15.68710149 83.67846517 18.36970808 84.82261715 21.06469727 86.1965332 C26.83356959 88.65457445 33.16244738 88.36819596 39.06469727 86.4465332 C43.27953981 84.62181479 46.94215453 82.12941931 49.87719727 78.5715332 C50.91792862 75.35850742 50.91792862 75.35850742 50.87719727 72.5715332 C51.86719727 72.5715332 52.85719727 72.5715332 53.87719727 72.5715332 C53.92799112 65.70307581 53.96297033 58.83466705 53.98706055 51.96606445 C53.99710557 49.63043406 54.01074403 47.2948162 54.02807617 44.95922852 C54.05239004 41.5981944 54.06369554 38.23732686 54.07250977 34.8762207 C54.08283234 33.83537323 54.09315491 32.79452576 54.10379028 31.72213745 C54.10457015 26.65990821 54.08540619 22.2466574 51.87719727 17.5715332 C49.0545872 16.16022817 46.65638243 16.40758994 43.49975586 16.36621094 C42.84597458 16.35631134 42.1921933 16.34641174 41.51860046 16.33621216 C39.35431559 16.30458609 37.19000876 16.27983548 35.02563477 16.25512695 C33.52633082 16.23455837 32.02703268 16.21356192 30.52774048 16.19215393 C26.57894595 16.13692333 22.63009901 16.08751845 18.68121338 16.03930664 C14.65274381 15.98909881 10.62435049 15.93340901 6.59594727 15.87817383 C-1.31023829 15.77058017 -9.21648758 15.66913791 -17.12280273 15.5715332 C-17.12280273 10.42867606 -17.12280273 10.42867606 -15.12280273 7.5715332 C-13.46295475 6.88806639 -11.79443468 6.22565005 -10.12280273 5.5715332 C-8.05909618 4.0083678 -6.06450998 2.38759062 -4.08764648 0.71606445 C-2.12280273 -0.4284668 -2.12280273 -0.4284668 0 0 Z " fill="#959595" transform="translate(286.122802734375,349.428466796875)"/>
<path d="M0 0 C0.33 0 0.66 0 1 0 C1.09361618 16.90753217 1.16406358 33.81498297 1.20724869 50.72271538 C1.22783703 58.57402101 1.25588583 66.4251652 1.30175781 74.27636719 C1.34174031 81.12284525 1.36745989 87.96920635 1.37635398 94.81579792 C1.38154954 98.43802385 1.39368199 102.05991527 1.42292023 105.68203354 C1.45536519 109.73462242 1.45595214 113.78663697 1.45410156 117.83935547 C1.46848267 119.02834946 1.48286377 120.21734344 1.49768066 121.44236755 C1.45697244 129.70445932 0.07314975 136.56100591 -4.6875 143.4375 C-11.2624628 147.88004243 -18.47873377 148.43284825 -26.20141602 148.34057617 C-27.17808731 148.34101425 -28.15475861 148.34145233 -29.161026 148.34190369 C-32.35886287 148.33982945 -35.55616204 148.31656301 -38.75390625 148.29296875 C-40.98306492 148.28736794 -43.2122273 148.28310014 -45.44139099 148.28010559 C-51.28575987 148.26869505 -57.12990225 148.23926052 -62.97418213 148.20599365 C-68.94694964 148.1752109 -74.91975402 148.16158275 -80.89257812 148.14648438 C-92.59515116 148.11438717 -104.29755668 148.06323681 -116 148 C-116 147.67 -116 147.34 -116 147 C-83.66 147 -51.32 147 -18 147 C-18 146.34 -18 145.68 -18 145 C-14.7 144.67 -11.4 144.34 -8 144 C-8 143.34 -8 142.68 -8 142 C-7.34 142 -6.68 142 -6 142 C-6 141.34 -6 140.68 -6 140 C-5.34 140 -4.68 140 -4 140 C-3.34 136.7 -2.68 133.4 -2 130 C-1.34 130 -0.68 130 0 130 C0 87.1 0 44.2 0 0 Z " fill="#3B3B3B" transform="translate(482,182)"/>
<path d="M0 0 C3.88817506 3.88817506 3.12830514 9.22587447 3.1328125 14.453125 C3.13376923 15.15395203 3.13472595 15.85477905 3.13571167 16.57684326 C3.13638915 18.04927664 3.13456512 19.52171307 3.13037109 20.99414062 C3.12498434 23.25657758 3.13034709 25.51881891 3.13671875 27.78125 C3.13605852 29.21354211 3.13477851 30.64583409 3.1328125 32.078125 C3.13168457 33.38168945 3.13055664 34.68525391 3.12939453 36.02832031 C3 39 3 39 2 40 C-0.23929886 40.09436529 -2.4816175 40.11742327 -4.72290039 40.11352539 C-5.4253035 40.11367142 -6.1277066 40.11381744 -6.85139465 40.1139679 C-9.18351278 40.11326872 -11.515552 40.10547617 -13.84765625 40.09765625 C-15.46048438 40.09579208 -17.07331307 40.09436818 -18.68614197 40.09336853 C-22.93915357 40.08954323 -27.19213124 40.07971285 -31.44512939 40.06866455 C-35.7817743 40.05845069 -40.11842467 40.05387096 -44.45507812 40.04882812 C-52.97006769 40.03809059 -61.48502963 40.02101403 -70 40 C-70 39.67 -70 39.34 -70 39 C-46.9 39 -23.8 39 0 39 C0 26.13 0 13.26 0 0 Z " fill="#7E7E7E" transform="translate(482,106)"/>
<path d="M0 0 C1.0643074 -0.00137466 2.12861481 -0.00274933 3.22517395 -0.00416565 C4.39258118 -0.00057037 5.5599884 0.0030249 6.76277161 0.00672913 C8.60685356 0.00651009 8.60685356 0.00651009 10.4881897 0.00628662 C13.8598293 0.00686436 17.23140785 0.0118834 20.60303664 0.01886058 C24.1264387 0.02510726 27.64984155 0.02569896 31.17324829 0.02688599 C37.84552448 0.02999542 44.5177843 0.03820359 51.19005328 0.04823548 C58.78610665 0.05940864 66.3821608 0.0649101 73.97822034 0.06993091 C89.6040861 0.08038652 105.22993554 0.09797847 120.85578918 0.12025452 C120.85578918 0.45025452 120.85578918 0.78025452 120.85578918 1.12025452 C57.99078918 1.61525452 57.99078918 1.61525452 -6.14421082 2.12025452 C-6.14421082 2.78025452 -6.14421082 3.44025452 -6.14421082 4.12025452 C-7.05171082 4.55337952 -7.95921082 4.98650452 -8.89421082 5.43275452 C-11.5763953 6.82542723 -13.80560686 8.23138209 -16.14421082 10.12025452 C-14.58410503 5.90796891 -11.65967152 3.77478607 -8.14421082 1.12025452 C-5.13227771 0.11627682 -3.14686613 -0.00313121 0 0 Z " fill="#838383" transform="translate(208.1442108154297,93.87974548339844)"/>
<path d="M0 0 C-15.29435361 7.78621638 -15.29435361 7.78621638 -21.25 8.875 C-26.47633159 9.89275931 -31.01712871 12.16135472 -35.7890625 14.46484375 C-36.84867188 14.97144531 -37.90828125 15.47804688 -39 16 C-40.08152344 16.54527344 -41.16304687 17.09054687 -42.27734375 17.65234375 C-49.64719786 20.3203392 -58.28744903 20.26357095 -66 19 C-69.61317413 17.24379584 -71.64191798 15.20123344 -74 12 C-74.825 11.195625 -75.65 10.39125 -76.5 9.5625 C-76.995 9.046875 -77.49 8.53125 -78 8 C-77.67 7.01 -77.34 6.02 -77 5 C-76.48050781 5.62648438 -75.96101562 6.25296875 -75.42578125 6.8984375 C-74.72839844 7.71570313 -74.03101563 8.53296875 -73.3125 9.375 C-72.28576172 10.59316406 -72.28576172 10.59316406 -71.23828125 11.8359375 C-66.3822738 16.53092551 -60.50882236 16.73158966 -54.05493164 16.85791016 C-42.66828231 16.49041927 -32.39139993 10.90881615 -22.15625 6.36816406 C-17.8095033 4.4839462 -13.40504808 2.82250621 -8.9375 1.25 C-7.90290649 0.87270752 -7.90290649 0.87270752 -6.84741211 0.48779297 C-2.24785908 -1.12392954 -2.24785908 -1.12392954 0 0 Z " fill="#C4C4C4" transform="translate(237,296)"/>
<path d="M0 0 C0.639375 0.804375 1.27875 1.60875 1.9375 2.4375 C3.40603502 4.2750504 3.40603502 4.2750504 5 6 C7.43299787 6.12492389 9.83904923 6.18601507 12.27368164 6.20532227 C13.03460617 6.21522186 13.7955307 6.22512146 14.57951355 6.23532104 C17.1063623 6.26702624 19.63322988 6.2917289 22.16015625 6.31640625 C23.90751141 6.33696801 25.65486151 6.35796426 27.40220642 6.37937927 C32.01026318 6.43468041 36.61836541 6.48405408 41.22650146 6.53222656 C45.92513089 6.58238303 50.62369394 6.63809958 55.32226562 6.69335938 C64.54812044 6.80103924 73.77403278 6.90246223 83 7 C83 7.33 83 7.66 83 8 C67.7291575 8.89266752 52.48806301 9.21571801 37.19189453 9.24023438 C33.44933379 9.25013402 29.70728101 9.28137382 25.96484375 9.3125 C23.5703157 9.31901491 21.17578381 9.32427127 18.78125 9.328125 C17.66987671 9.3404718 16.55850342 9.3528186 15.41345215 9.36553955 C14.38046997 9.36253845 13.34748779 9.35953735 12.28320312 9.35644531 C11.38057739 9.36009094 10.47795166 9.36373657 9.54797363 9.36749268 C5.49509766 8.78294886 2.8524656 6.8524656 0 4 C0 2.68 0 1.36 0 0 Z " fill="#E3E3E3" transform="translate(27,442)"/>
<path d="M0 0 C0.33 0 0.66 0 1 0 C1.10901505 2.83439137 1.18777904 5.66450203 1.25 8.5 C1.30027344 9.68722656 1.30027344 9.68722656 1.3515625 10.8984375 C1.50042701 19.97917235 -2.42270463 26.16136665 -8.47265625 32.70703125 C-12.96802887 36.78552233 -18.10509012 39.84856901 -23.28662109 42.96533203 C-25.75828285 44.45790862 -28.19115811 46.00920872 -30.625 47.5625 C-31.48996094 48.11164063 -32.35492188 48.66078125 -33.24609375 49.2265625 C-38.20630475 52.42079767 -43.10308535 55.70975194 -48 59 C-48 58.01 -48 57.02 -48 56 C-46.35 55.34 -44.7 54.68 -43 54 C-43 53.34 -43 52.68 -43 52 C-41.824375 51.4740625 -41.824375 51.4740625 -40.625 50.9375 C-36.71203606 48.98559996 -33.26770604 46.43331757 -29.71875 43.89453125 C-26.96893024 41.97834938 -24.16134319 40.20237401 -21.3125 38.4375 C-13.12338214 33.258748 -3.96632649 26.65718847 -1 17 C-0.63461056 14.06718389 -0.49376917 11.13940879 -0.375 8.1875 C-0.33632813 7.39923828 -0.29765625 6.61097656 -0.2578125 5.79882812 C-0.16411156 3.8662462 -0.08099221 1.93315624 0 0 Z " fill="#C7C7C7" transform="translate(337,290)"/>
<path d="M0 0 C0.5775 0.226875 1.155 0.45375 1.75 0.6875 C-14.66037954 10.65004166 -31.55564211 17.14758712 -50.5625 20.4375 C-51.29122314 20.56535889 -52.01994629 20.69321777 -52.77075195 20.82495117 C-57.97967171 21.66350051 -62.97505913 21.79164493 -68.25 21.6875 C-68.25 21.3575 -68.25 21.0275 -68.25 20.6875 C-67.12694458 20.50743408 -67.12694458 20.50743408 -65.98120117 20.32373047 C-33.26756738 15.65663408 -33.26756738 15.65663408 -4.08984375 0.91796875 C-2.25 -0.3125 -2.25 -0.3125 0 0 Z " fill="#D4D4D4" transform="translate(178.25,427.3125)"/>
<path d="M0 0 C0.93030029 0.28182129 0.93030029 0.28182129 1.87939453 0.56933594 C-0.57528147 2.24162129 -3.0340022 3.90730454 -5.49560547 5.56933594 C-6.54361328 6.28476562 -6.54361328 6.28476562 -7.61279297 7.01464844 C-8.28310547 7.46582031 -8.95341797 7.91699219 -9.64404297 8.38183594 C-10.2619873 8.80078125 -10.87993164 9.21972656 -11.51660156 9.65136719 C-13.12060547 10.56933594 -13.12060547 10.56933594 -15.12060547 10.56933594 C-15.12060547 11.22933594 -15.12060547 11.88933594 -15.12060547 12.56933594 C5.66939453 12.89933594 26.45939453 13.22933594 47.87939453 13.56933594 C47.87939453 13.89933594 47.87939453 14.22933594 47.87939453 14.56933594 C26.09939453 14.56933594 4.31939453 14.56933594 -18.12060547 14.56933594 C-16.12060547 8.56933594 -16.12060547 8.56933594 -13.49560547 7.06933594 C-12.38185547 6.57433594 -11.26810547 6.07933594 -10.12060547 5.56933594 C-8.04837097 3.99124966 -6.04132132 2.35789148 -4.05029297 0.67871094 C-2.12060547 -0.43066406 -2.12060547 -0.43066406 0 0 Z " fill="#F7F6F7" transform="translate(286.12060546875,349.4306640625)"/>
<path d="M0 0 C0.66 0 1.32 0 2 0 C9.76299861 15.31121069 13.95374728 34.8345707 8.875 51.74609375 C7.5 54.5625 7.5 54.5625 6.11328125 56.9296875 C4.41856993 60.08125591 4.61157304 62.50415733 5 66 C4.01 65.67 3.02 65.34 2 65 C2.44635991 59.08573118 3.86608981 54.21811304 6.0625 48.7109375 C11.25705797 33.69000737 6.84466128 17.8856261 0.734375 3.85546875 C0 2 0 2 0 0 Z " fill="#C5C4C5" transform="translate(361,264)"/>
<path d="M0 0 C0.33 0 0.66 0 1 0 C0.61475404 7.19125798 -1.25510152 12.4828934 -6.60546875 17.5078125 C-12.43128677 21.96049721 -19.08391535 24.71603748 -26.484375 24.49609375 C-31.72765242 23.46209339 -36.50038062 20.81956669 -41 18 C-41.33 17.34 -41.66 16.68 -42 16 C-39.19009577 17.10693197 -36.50748918 18.25108395 -33.8125 19.625 C-28.04362768 22.08304125 -21.71474988 21.79666275 -15.8125 19.875 C-11.59765746 18.05028158 -7.93504274 15.55788611 -5 12 C-3.95926864 8.78697422 -3.95926864 8.78697422 -4 6 C-3.01 6 -2.02 6 -1 6 C-0.67 4.02 -0.34 2.04 0 0 Z " fill="#D4D4D4" transform="translate(341,416)"/>
<path d="M0 0 C2.6875 -0.3125 2.6875 -0.3125 5 0 C5.495 1.485 5.495 1.485 6 3 C5.23558594 2.92394531 4.47117187 2.84789062 3.68359375 2.76953125 C0.94746706 2.71604952 0.94746706 2.71604952 -0.58984375 4.57421875 C-1.25693359 5.62029297 -1.25693359 5.62029297 -1.9375 6.6875 C-5.99840436 12.55094864 -10.83198841 17.25786731 -18 19 C-26.60318368 20.10734047 -32.67150767 18.53977401 -40 14 C-39.01 13.67 -38.02 13.34 -37 13 C-36.25105469 13.4640625 -35.50210937 13.928125 -34.73046875 14.40625 C-29.59537775 17.40355633 -23.7530111 16.66429104 -18 16 C-11.34604321 13.94587614 -6.91275134 10.69127468 -3 5 C-2.505 4.05125 -2.01 3.1025 -1.5 2.125 C-1.005 1.42375 -0.51 0.7225 0 0 Z " fill="#C5C5C5" transform="translate(293,429)"/>
<path d="M0 0 C3.57519813 0.82504572 4.43970318 2.53358225 6.4375 5.5625 C7.82579885 7.87156062 9.14018382 10.19953124 10.4375 12.5625 C9.7775 12.5625 9.1175 12.5625 8.4375 12.5625 C6.89421439 10.28151482 5.54165266 7.91770355 4.16796875 5.53125 C2.58772101 3.31717277 2.58772101 3.31717277 -0.07421875 3.1328125 C-3.79617786 3.77553699 -5.76218849 6.11222743 -8.5625 8.5625 C-12.7344783 10.71459444 -16.40570457 10.86102961 -21.0625 10.875 C-22.3515625 10.89175781 -23.640625 10.90851563 -24.96875 10.92578125 C-28.69158842 10.54945084 -30.57319546 9.74124312 -33.5625 7.5625 C-31.625 7 -31.625 7 -29.5625 6.5625 C-29.2325 6.8925 -28.9025 7.2225 -28.5625 7.5625 C-26.15109279 7.71711551 -23.78799429 7.79420241 -21.375 7.8125 C-19.40466797 7.85117187 -19.40466797 7.85117187 -17.39453125 7.890625 C-12.16323231 7.44268503 -8.95280998 5.74934998 -5 2.375 C-2.5625 0.5625 -2.5625 0.5625 0 0 Z " fill="#B9B9B9" transform="translate(242.5625,429.4375)"/>
<path d="M0 0 C0.66 0.33 1.32 0.66 2 1 C-1.1326492 6.09055495 -3.42466509 8.57750974 -8.87109375 10.96484375 C-13.40233401 13.16810736 -17.44791878 16.44791878 -21 20 C-21.37322427 23.10756015 -21.37322427 23.10756015 -21.4140625 26.7578125 C-21.43342865 27.42086395 -21.4527948 28.08391541 -21.4727478 28.76705933 C-21.53255954 30.88624177 -21.57893388 33.0054785 -21.625 35.125 C-21.66317845 36.56122169 -21.70223011 37.99742045 -21.7421875 39.43359375 C-21.83826125 42.95551936 -21.92228642 46.47761608 -22 50 C-22.33 50 -22.66 50 -23 50 C-23.19930257 45.73185878 -23.34361681 41.46624862 -23.43945312 37.19482422 C-23.47943584 35.74545067 -23.53384713 34.29639472 -23.60351562 32.84814453 C-24.16411598 20.88592217 -24.16411598 20.88592217 -21.32421875 16.28515625 C-18.17284017 13.05192368 -15.02432661 10.9792613 -11 9 C-9.05459685 7.4947579 -7.13962873 5.9496906 -5.25 4.375 C-4.26515625 3.55773437 -3.2803125 2.74046875 -2.265625 1.8984375 C-1.51796875 1.27195313 -0.7703125 0.64546875 0 0 Z " fill="#AFAFB0" transform="translate(50,246)"/>
<path d="M0 0 C11.9921574 -0.8176471 21.89233566 4.06290938 32 10 C32.76441406 10.40089844 33.52882813 10.80179688 34.31640625 11.21484375 C40.1559717 14.42603336 44.59741852 19.28056105 48 25 C47.505 26.485 47.505 26.485 47 28 C46.35998047 27.07380859 46.35998047 27.07380859 45.70703125 26.12890625 C34.28949759 10.66226788 18.30860142 4.68569227 0 1 C0 0.67 0 0.34 0 0 Z " fill="#D3D3D3" transform="translate(313,236)"/>
<path d="M0 0 C1.875 1.9375 1.875 1.9375 4 5 C5.20238498 6.54631042 6.41117399 8.08765425 7.625 9.625 C9.51676589 12.04546902 11.29425449 14.44138174 13 17 C6.6206279 14.26598339 2.18816662 8.00125481 -1 2 C-4.2771864 2.65094798 -6.75177684 3.87604293 -9.625 5.5625 C-13.78186969 8 -13.78186969 8 -16 8 C-16 7.34 -16 6.68 -16 6 C-14.27843904 4.98696238 -12.54738194 3.99005152 -10.8125 3 C-9.84957031 2.443125 -8.88664063 1.88625 -7.89453125 1.3125 C-4.92232314 -0.0352219 -3.21195418 -0.43976496 0 0 Z " fill="#D0D0D0" transform="translate(196,419)"/>
<path d="M0 0 C0.66 0.33 1.32 0.66 2 1 C0.64511694 2.8275867 -0.73478487 4.63664377 -2.125 6.4375 C-2.89070313 7.44683594 -3.65640625 8.45617187 -4.4453125 9.49609375 C-7.4184394 12.4101218 -8.95257329 12.60405608 -13 13 C-15.82865928 14.9445527 -15.82865928 14.9445527 -18 17 C-18.66 16.67 -19.32 16.34 -20 16 C-13.40833153 10.56649384 -6.77550899 5.20292172 0 0 Z " fill="#5B5B5B" transform="translate(96,211)"/>
<path d="M0 0 C0.70125 0.721875 1.4025 1.44375 2.125 2.1875 C7.4226512 7.56431436 7.4226512 7.56431436 14 11 C14 11.66 14 12.32 14 13 C19.94 13 25.88 13 32 13 C32 13.33 32 13.66 32 14 C14.3957323 15.1442774 14.3957323 15.1442774 9.03125 12.58203125 C7.09403186 10.8348095 5.5506859 9.09162284 4 7 C3.175 6.2575 2.35 5.515 1.5 4.75 C0 3 0 3 0 0 Z " fill="#BABABA" transform="translate(159,301)"/>
<path d="M0 0 C0.50402344 0.23203125 1.00804687 0.4640625 1.52734375 0.703125 C0.88925781 0.88488281 0.25117188 1.06664062 -0.40625 1.25390625 C-1.23253906 1.50527344 -2.05882812 1.75664062 -2.91015625 2.015625 C-3.73386719 2.25925781 -4.55757812 2.50289062 -5.40625 2.75390625 C-6.42912109 3.22376953 -6.42912109 3.22376953 -7.47265625 3.703125 C-7.80265625 4.693125 -8.13265625 5.683125 -8.47265625 6.703125 C-12.40540754 8.06446198 -16.38158457 8.95929378 -20.47265625 9.703125 C-17.70106928 6.31446772 -13.91341835 4.76025384 -10.03515625 2.953125 C-9.03258789 2.46005859 -9.03258789 2.46005859 -8.00976562 1.95703125 C-3.06141893 -0.36756373 -3.06141893 -0.36756373 0 0 Z " fill="#666666" transform="translate(135.47265625,189.296875)"/>
<path d="M0 0 C2.31 0 4.62 0 7 0 C3.47933914 2.34710724 -0.14260285 3.97500785 -4 5.6875 C-5.08667969 6.18733398 -5.08667969 6.18733398 -6.1953125 6.69726562 C-11.64872502 9.11709166 -11.64872502 9.11709166 -15 8 C-13.8125 6.5 -13.8125 6.5 -12 5 C-9.3125 4.8125 -9.3125 4.8125 -7 5 C-7 4.34 -7 3.68 -7 3 C-5.02 3 -3.04 3 -1 3 C-0.67 2.01 -0.34 1.02 0 0 Z " fill="#5E5E5E" transform="translate(255,249)"/>
<path d="M0 0 C-0.639375 0.103125 -1.27875 0.20625 -1.9375 0.3125 C-2.618125 0.539375 -3.29875 0.76625 -4 1 C-4.33 1.99 -4.66 2.98 -5 4 C-7.31029085 4.74259349 -9.645752 5.411438 -12 6 C-12.33 6.33 -12.66 6.66 -13 7 C-15.67058851 7.14115161 -18.32432238 7.04247107 -21 7 C-17.45941714 4.63961143 -13.90193747 3.30223114 -9.9375 1.8125 C-9.20466797 1.52697266 -8.47183594 1.24144531 -7.71679688 0.94726562 C-2.2396978 -1.1198489 -2.2396978 -1.1198489 0 0 Z " fill="#7D7D7D" transform="translate(277,280)"/>
<path d="M0 0 C0.66 0.33 1.32 0.66 2 1 C-1.61891437 6.88073585 -4.69711031 9.35604428 -11 12 C-12.33749398 12.65827964 -13.67203288 13.32270719 -15 14 C-10.75802296 8.34403061 -5.5954014 4.28075369 0 0 Z " fill="#626262" transform="translate(50,246)"/>
<path d="M0 0 C0 0.66 0 1.32 0 2 C-0.99 2.33 -1.98 2.66 -3 3 C-3.598125 3.680625 -4.19625 4.36125 -4.8125 5.0625 C-7.70630725 7.62558642 -9.21622821 7.22702631 -13 7 C-15.00569659 7.29714023 -17.00822259 7.62061383 -19 8 C-16.27227952 5.27227952 -13.02994255 4.2539869 -9.5 2.875 C-8.81035156 2.59785156 -8.12070313 2.32070313 -7.41015625 2.03515625 C-2.26712592 0 -2.26712592 0 0 0 Z " fill="#737373" transform="translate(256,287)"/>
<path d="M0 0 C0.6194751 0.18860596 1.2389502 0.37721191 1.87719727 0.5715332 C-0.55482136 2.24672438 -2.99278072 3.91178454 -5.43530273 5.5715332 C-6.1255957 6.04848633 -6.81588867 6.52543945 -7.52709961 7.0168457 C-8.19418945 7.46801758 -8.8612793 7.91918945 -9.54858398 8.3840332 C-10.46764526 9.01245117 -10.46764526 9.01245117 -11.40527344 9.65356445 C-13.12280273 10.5715332 -13.12280273 10.5715332 -16.12280273 10.5715332 C-15.79280273 9.5815332 -15.46280273 8.5915332 -15.12280273 7.5715332 C-14.44217773 7.3034082 -13.76155273 7.0352832 -13.06030273 6.7590332 C-9.49149326 5.31632299 -7.01027308 3.18727546 -4.08764648 0.71606445 C-2.12280273 -0.4284668 -2.12280273 -0.4284668 0 0 Z " fill="#B6B6B6" transform="translate(286.122802734375,349.428466796875)"/>
<path d="M0 0 C5.94 0.33 11.88 0.66 18 1 C17.67 1.66 17.34 2.32 17 3 C14.72975032 3.08097324 12.45867925 3.13917704 10.1875 3.1875 C8.29064453 3.23970703 8.29064453 3.23970703 6.35546875 3.29296875 C3 3 3 3 0 0 Z " fill="#353535" transform="translate(258,443)"/>
<path d="M0 0 C-6.38660122 4.56185802 -11.12203004 6.3151188 -19 6 C-15.5499962 4.19002264 -11.9985289 2.73982685 -8.375 1.3125 C-7.22773438 0.85488281 -6.08046875 0.39726562 -4.8984375 -0.07421875 C-2 -1 -2 -1 0 0 Z " fill="#BABABA" transform="translate(163,436)"/>
<path d="M0 0 C0 0.33 0 0.66 0 1 C-3.96 1 -7.92 1 -12 1 C-12 1.66 -12 2.32 -12 3 C-13.36125 3.6496875 -13.36125 3.6496875 -14.75 4.3125 C-17.43218449 5.70517271 -19.66139605 7.11112757 -22 9 C-20.79569298 5.74837104 -18.87750782 3.17636949 -16.1953125 0.97265625 C-11.22694712 -1.22863019 -5.31295474 -0.32751091 0 0 Z " fill="#5F5F5F" transform="translate(214,95)"/>
<path d="M0 0 C0 0.66 0 1.32 0 2 C-0.99 2 -1.98 2 -3 2 C-3 2.99 -3 3.98 -3 5 C-6.0080208 8.0080208 -8.85463326 8.5289356 -13 9 C-4.5 0 -4.5 0 0 0 Z " fill="#595959" transform="translate(115,199)"/>
<path d="M0 0 C3.63 0 7.26 0 11 0 C11 0.99 11 1.98 11 3 C10.67 2.67 10.34 2.34 10 2 C5.13348561 2.37434726 2.09145888 3.42822584 -2 6 C-2.66 5.67 -3.32 5.34 -4 5 C-2.35 4.34 -0.7 3.68 1 3 C0.67 2.01 0.34 1.02 0 0 Z " fill="#454545" transform="translate(186,418)"/>
<path d="M0 0 C4.75 0.875 4.75 0.875 7 2 C9.204364 2.22950319 11.41392173 2.41075933 13.625 2.5625 C14.81351563 2.64628906 16.00203125 2.73007812 17.2265625 2.81640625 C18.59941406 2.90728516 18.59941406 2.90728516 20 3 C20 3.33 20 3.66 20 4 C17.60347472 4.08139142 15.20974564 4.14067009 12.8125 4.1875 C12.13896484 4.21263672 11.46542969 4.23777344 10.77148438 4.26367188 C6.31116118 4.3289449 3.55034309 3.73686642 0 1 C0 0.67 0 0.34 0 0 Z " fill="#E0E0E0" transform="translate(209,436)"/>
<path d="M0 0 C0.99 0.33 1.98 0.66 3 1 C-1.53669968 4.01679014 -5.68972746 6.53967505 -11 8 C-11 7.01 -11 6.02 -11 5 C-9.73160474 4.49384702 -8.46016898 3.99530901 -7.1875 3.5 C-6.12595703 3.08234375 -6.12595703 3.08234375 -5.04296875 2.65625 C-3 2 -3 2 0 2 C0 1.34 0 0.68 0 0 Z " fill="#2F2F2F" transform="translate(173,427)"/>
<path d="M0 0 C-1 3 -1 3 -3 4 C-5.71760108 4.07181821 -8.40859388 4.09299506 -11.125 4.0625 C-11.87910156 4.05798828 -12.63320312 4.05347656 -13.41015625 4.04882812 C-15.27347127 4.03703499 -17.13674555 4.01909942 -19 4 C-19 3.67 -19 3.34 -19 3 C-18.02417969 2.95101563 -17.04835937 2.90203125 -16.04296875 2.8515625 C-14.77066406 2.77679688 -13.49835938 2.70203125 -12.1875 2.625 C-10.29064453 2.52058594 -10.29064453 2.52058594 -8.35546875 2.4140625 C-5.0078897 2.00097358 -3.18073831 0 0 0 Z " fill="#484848" transform="translate(196,312)"/>
<path d="M0 0 C-1.93232821 0.86580287 -3.87107194 1.71729941 -5.8125 2.5625 C-6.89144531 3.03816406 -7.97039062 3.51382812 -9.08203125 4.00390625 C-12 5 -12 5 -15 4 C-14.360625 3.71125 -13.72125 3.4225 -13.0625 3.125 C-10.84793921 2.17176549 -10.84793921 2.17176549 -10 0 C-6.18015204 -0.77811718 -3.73159669 -1.24386556 0 0 Z " fill="#767676" transform="translate(237,260)"/>
<path d="M0 0 C0.33 0 0.66 0 1 0 C0.14285714 8.57142857 0.14285714 8.57142857 -2 12 C-2.66 12 -3.32 12 -4 12 C-4 10.02 -4 8.04 -4 6 C-3.01 6 -2.02 6 -1 6 C-0.67 4.02 -0.34 2.04 0 0 Z " fill="#A6A6A6" transform="translate(341,416)"/>
<path d="M0 0 C0.66 0 1.32 0 2 0 C2.16682272 4.92127034 2.24828052 8.50343896 0 13 C-0.33 13 -0.66 13 -1 13 C-0.67 8.71 -0.34 4.42 0 0 Z " fill="#989699" transform="translate(369,304)"/>
<path d="M0 0 C4.29 0 8.58 0 13 0 C13 0.33 13 0.66 13 1 C8.71 1.66 4.42 2.32 0 3 C0 2.01 0 1.02 0 0 Z " fill="#393939" transform="translate(125,443)"/>
<path d="M0 0 C0.66 0.33 1.32 0.66 2 1 C-0.45699392 3.63249349 -2.56568654 5.78137264 -6 7 C-6.99 6.67 -7.98 6.34 -9 6 C-6.03 4.02 -3.06 2.04 0 0 Z " fill="#B6B6B6" transform="translate(316,328)"/>
<path d="M0 0 C0.66 0.33 1.32 0.66 2 1 C0.35 2.98 -1.3 4.96 -3 7 C-4.32 6.67 -5.64 6.34 -7 6 C-4.69 4.02 -2.38 2.04 0 0 Z " fill="#676767" transform="translate(96,211)"/>
<path d="M0 0 C-1.38009621 3.33523252 -2.84950652 5.18607951 -6 7 C-6.99 6.67 -7.98 6.34 -9 6 C-7.8803014 4.99406757 -6.7540588 3.9954151 -5.625 3 C-4.68527344 2.1646875 -4.68527344 2.1646875 -3.7265625 1.3125 C-2 0 -2 0 0 0 Z " fill="#C5C5C5" transform="translate(338,428)"/>
<path d="M0 0 C0.99 0.33 1.98 0.66 3 1 C0.36 2.98 -2.28 4.96 -5 7 C-5.66 6.67 -6.32 6.34 -7 6 C-2.25 1.125 -2.25 1.125 0 0 Z " fill="#CECECE" transform="translate(324,323)"/>
<path d="M0 0 C0.556875 0.78375 1.11375 1.5675 1.6875 2.375 C4.07668565 5.08704858 5.60073413 5.96133543 9 7 C9 7.33 9 7.66 9 8 C5.68847126 8.36794764 4.39390748 8.29809215 1.6875 6.25 C0 4 0 4 0 0 Z " fill="#D1D1D1" transform="translate(27,442)"/>
<path d="M0 0 C0.66 0 1.32 0 2 0 C0.54744301 3.82946843 -1.42895561 5.12050295 -5 7 C-5 6.01 -5 5.02 -5 4 C-4.34 4 -3.68 4 -3 4 C-3 3.34 -3 2.68 -3 2 C-2.01 2 -1.02 2 0 2 C0 1.34 0 0.68 0 0 Z " fill="#282828" transform="translate(286,436)"/>
<path d="M0 0 C-6.625 3.125 -6.625 3.125 -10 2 C-9.67 1.34 -9.34 0.68 -9 0 C-5.44307323 -0.85056945 -3.50729422 -1.16909807 0 0 Z " fill="#7A7A7A" transform="translate(206,273)"/>
<path d="M0 0 C2.31 0 4.62 0 7 0 C4.06171403 2.50298434 1.82097239 3.46930939 -2 4 C-1.34 3.67 -0.68 3.34 0 3 C0 2.01 0 1.02 0 0 Z " fill="#686868" transform="translate(208,268)"/>
<path d="M0 0 C-1.4562545 0.67119549 -2.91507867 1.33681807 -4.375 2 C-5.59316406 2.556875 -5.59316406 2.556875 -6.8359375 3.125 C-9 4 -9 4 -11 4 C-10.67 3.01 -10.34 2.02 -10 1 C-3.84210526 -1.28070175 -3.84210526 -1.28070175 0 0 Z " fill="#555555" transform="translate(273,245)"/>
<path d="M0 0 C0.66 0.33 1.32 0.66 2 1 C0.68 2.65 -0.64 4.3 -2 6 C-3.32 5.67 -4.64 5.34 -6 5 C-4.02 3.35 -2.04 1.7 0 0 Z " fill="#696969" transform="translate(58,240)"/>
<path d="M0 0 C0 0.99 0 1.98 0 3 C-1.96466413 4.06775224 -3.96855359 5.06553465 -6 6 C-6.66 5.67 -7.32 5.34 -8 5 C-2.25 0 -2.25 0 0 0 Z " fill="#686868" transform="translate(76,228)"/>
</svg>
