<?xml version="1.0" standalone="no"?>
<!DOCTYPE svg PUBLIC "-//W3C//DTD SVG 20010904//EN"
 "http://www.w3.org/TR/2001/REC-SVG-20010904/DTD/svg10.dtd">
<svg version="1.0" xmlns="http://www.w3.org/2000/svg"
 width="512.000000pt" height="512.000000pt" viewBox="0 0 512.000000 512.000000"
 preserveAspectRatio="xMidYMid meet">

<g transform="translate(0.000000,512.000000) scale(0.100000,-0.100000)"
fill="#000000" stroke="none">
<path d="M451 4990 c-98 -34 -205 -104 -271 -178 -56 -62 -131 -205 -150 -287
-9 -36 -15 -401 -21 -1325 -10 -1429 -13 -1361 61 -1515 l38 -80 1 400 c1 227
6 428 12 465 32 200 192 354 396 381 51 6 454 9 1168 7 l1090 -3 60 -24 c124
-50 206 -124 263 -240 l37 -75 3 -601 3 -602 211 -6 c389 -13 751 -9 836 9
249 50 458 258 501 499 6 33 12 178 13 322 l3 262 -410 3 c-396 4 -412 4 -480
27 -256 84 -446 285 -506 537 -41 173 -10 374 82 531 55 94 190 221 286 271
151 78 180 82 640 82 l403 0 0 293 c0 260 -2 303 -20 371 -59 230 -244 416
-470 471 -69 17 -149 18 -2790 29 l-910 4 -79 -28z"/>
<path d="M3885 3686 c-301 -74 -494 -378 -431 -677 41 -193 184 -351 384 -427
l67 -26 575 -7 c352 -4 581 -4 592 2 10 5 22 17 27 27 5 9 10 256 12 549 4
500 3 533 -14 550 -17 17 -55 18 -590 20 -425 1 -585 -2 -622 -11z m309 -265
c66 -32 122 -91 155 -160 38 -82 37 -193 -2 -273 -33 -67 -90 -121 -164 -155
-48 -22 -65 -25 -137 -21 -130 7 -224 67 -278 176 -30 63 -37 180 -13 251 28
86 119 171 215 202 50 16 172 5 224 -20z"/>
<path d="M463 2684 c-54 -19 -126 -83 -161 -142 l-27 -47 -5 -820 -5 -820
-122 -355 c-67 -195 -125 -363 -128 -373 -5 -12 -2 -17 11 -17 11 0 190 113
399 250 l380 250 961 0 c1070 0 1020 -3 1111 68 27 22 61 62 78 93 l30 54 3
814 c3 937 8 876 -87 972 -97 96 6 89 -1275 88 -963 0 -1127 -3 -1163 -15z
m654 -755 c164 -80 176 -307 20 -403 -224 -138 -464 149 -293 350 60 73 183
96 273 53z m661 5 c84 -35 141 -120 142 -212 0 -156 -148 -264 -303 -221 -49
13 -115 73 -138 124 -68 148 43 325 203 325 32 0 75 -7 96 -16z m655 3 c150
-64 187 -263 71 -381 -111 -112 -303 -77 -370 68 -55 117 -5 255 111 307 48
22 142 25 188 6z"/>
</g>
</svg>
