<svg xmlns="http://www.w3.org/2000/svg" version="1.1" xmlns:xlink="http://www.w3.org/1999/xlink" xmlns:svgjs="http://svgjs.dev/svgjs" width="1500" height="530" viewBox="0 0 1500 530"><g transform="matrix(1,0,0,1,-0.9090909090911055,-1.7929676842053368)"><svg viewBox="0 0 396 140" data-background-color="#ffffff" preserveAspectRatio="xMidYMid meet" height="530" width="1500" xmlns="http://www.w3.org/2000/svg" xmlns:xlink="http://www.w3.org/1999/xlink"><g id="tight-bounds" transform="matrix(1,0,0,1,0.24000000000003752,0.47361410526178815)"><svg viewBox="0 0 395.5199999999999 139.05273278038794" height="139.05273278038794" width="395.5199999999999"><g><svg viewBox="0 0 395.5199999999999 139.05273278038794" height="139.05273278038794" width="395.5199999999999"><g><svg viewBox="0 0 730.0206479428298 256.652928" height="139.05273278038794" width="395.5199999999999"><g transform="matrix(1,0,0,1,334.50064794282986,62.375058568842306)"><svg viewBox="0 0 395.52 131.90281086231536" height="131.90281086231536" width="395.52"><g id="textblocktransform"><svg viewBox="0 0 395.52 131.90281086231536" height="131.90281086231536" width="395.52" id="textblock"><g><svg viewBox="0 0 395.52 131.90281086231536" height="131.90281086231536" width="395.52"><g transform="matrix(1,0,0,1,0,0)"><svg width="395.52" viewBox="6.5 -35 104.94 35" height="131.90281086231536" data-palette-color="#6f605b"><path d="M21.9 0L6.5 0 6.5-35 21.75-35 21.75-32.55 13-33.7Q10.7-34 9.9-34L9.9-34 9.9-18.75Q10.55-18.75 13-18.9L13-18.9 21.2-19.4 21.2-17.1 13-17.6Q10.55-17.75 9.9-17.75L9.9-17.75 9.9-1Q10.8-1 13.05-1.3L13.05-1.3 21.9-2.45 21.9 0ZM35.8 0L32.4 0 32.4-35 38.65-35Q44.7-35 48.05-32.43 51.4-29.85 51.4-25.25L51.4-25.25Q51.4-20.65 48.05-18.07 44.7-15.5 38.65-15.5L38.65-15.5 35.8-15.5 35.8 0ZM38.65-33.8L38.65-33.8 35.8-33.8 35.8-16.7 38.65-16.7Q47.8-16.7 47.8-25.25L47.8-25.25Q47.8-33.8 38.65-33.8ZM56.95 0L53.3 0 66.75-35 69.84-35 83.3 0 79.65 0 73.45-16.4 62.1-16.4 56.95 0ZM67.4-32.4L67.09-32.4 62.45-17.6 73-17.6 67.4-32.4ZM99.49 0L95.89 0 95.89-14.8 83.49-35 87.29-35 98.44-16.7 98.74-16.7 107.64-35 111.44-35 99.49-15.5 99.49 0Z" opacity="1" transform="matrix(1,0,0,1,0,0)" fill="#6f605b" class="wordmark-text-0" data-fill-palette-color="primary" id="text-0"></path></svg></g></svg></g></svg></g></svg></g><g><svg viewBox="0 0 256.652928 256.652928" height="256.652928" width="256.652928"><g><svg viewBox="0 0 256.652928 256.652928" height="256.652928" width="256.652928"><g transform="matrix(1,0,0,1,67.83278873327242,82.20312981726633)"><svg viewBox="0 0 120.98735053345514 92.2466683654673" height="92.2466683654673" width="120.98735053345514"><g><svg xmlns="http://www.w3.org/2000/svg" data-name="Layer 1" viewBox="0.9999988064227859 12.63999999997682 98.00001444005296 74.72000000002318" x="0" y="0" height="92.2466683654673" width="120.98735053345514" class="icon-dxe-0" data-fill-palette-color="accent" id="dxe-0"><path d="M1 85V49.69A2.7 2.7 0 0 1 2.09 47.52L18.88 35.06A14.46 14.46 0 0 1 27.52 32.21 15 15 0 0 1 29.01 32.29V53.29A5.58 5.58 0 0 0 30.3 57 5.34 5.34 0 0 0 36.3 58.48L59.13 49.54A6.5 6.5 0 0 1 61.51 49.09 6.54 6.54 0 0 1 67.67 53.45 6.67 6.67 0 0 1 64.83 61.25L52.88 68.81H66.65A2.2 2.2 0 0 1 68.85 71.01V79.55A5.8 5.8 0 0 1 58.45 82.64 5.81 5.81 0 0 1 47.45 82.64 5.81 5.81 0 0 1 37.18 80.44 40.57 40.57 0 0 1 14.54 87.36H3.36A2.36 2.36 0 0 1 1 85M95.22 12.64H39.58A3.78 3.78 0 0 0 35.8 16.42V23.73H99V16.43A3.78 3.78 0 0 0 95.22 12.64M35.8 51.64L56.73 43.45A13 13 0 0 1 61.49 42.55 13.15 13.15 0 0 1 73.8 51.21 13 13 0 0 1 72.68 62.21H95.22A3.78 3.78 0 0 0 99 58.46V30.87H35.8Z" fill="#f36527" data-fill-palette-color="accent"></path></svg></g></svg></g><g id="text-0"><path d="M47.286 79.305l-5.742 16.901-38.415-13.05 5.685-16.735 2.688 0.914-4.522 9.17c-0.795 1.613-1.291 2.709-1.488 3.289v0l16.745 5.688c0.162-0.476 0.491-1.628 0.989-3.458v0l2.511-9.189 2.522 0.857-3.606 8.817c-0.72 1.754-1.16 2.87-1.322 3.345v0l18.387 6.246c0.224-0.658 0.504-1.846 0.84-3.563v0l2.039-10.145z" fill="#f36527" data-fill-palette-color="accent"></path><path d="M86.539 43.387l-3.494 1.83-18.827-35.939 6.42-3.363c4.139-2.169 7.817-2.972 11.032-2.411 3.215 0.561 5.648 2.417 7.3 5.57v0c1.648 3.146 1.787 6.2 0.418 9.162-1.366 2.969-4.119 5.537-8.259 7.706v0l-2.926 1.533zM71.285 7.15v0l-2.927 1.533 9.198 17.558 2.927-1.533c6.261-3.28 7.859-7.846 4.792-13.699v0c-3.066-5.853-7.73-7.139-13.99-3.859z" fill="#f36527" data-fill-palette-color="accent"></path><path d="M145.602 34.96l-4.019-1.328 27.53-33.632 3.412 1.127 2.082 43.417-4.019-1.328-0.857-20.31-12.497-4.13zM168.883 3.099l-0.323-0.107-10.51 14.597 11.616 3.838z" fill="#f36527" data-fill-palette-color="accent"></path><path d="M210.471 86.39l-1.921-3.702 15.231-7.901 14.166-23.538 2.025 3.904-12.88 21.242 0.162 0.312 23.581-0.614 2.03 3.913-26.449-1.887z" fill="#f36527" data-fill-palette-color="accent"></path><path d="M9.04 185.38l-5.602-16.578 37.682-12.735 5.547 16.411-2.641 0.893-1.941-9.838c-0.342-1.722-0.61-2.87-0.804-3.444v0l-16.421 5.549c0.156 0.463 0.588 1.556 1.293 3.279v0l3.523 8.65-2.484 0.839-2.447-9.013c-0.484-1.798-0.804-2.928-0.961-3.391v0l-18.034 6.095c0.218 0.645 0.708 1.74 1.469 3.284v0l4.462 9.106z" fill="#f36527" data-fill-palette-color="accent"></path><path d="M67.97 244.51l-3.422-1.789 18.43-35.249 6.294 3.291c4.062 2.124 6.762 4.638 8.101 7.544 1.348 2.903 1.215 5.897-0.398 8.983v0c-1.617 3.092-4.002 4.913-7.154 5.463-3.15 0.559-6.756-0.224-10.818-2.348v0l-2.873-1.502zM88.641 211.971v0l-2.873-1.502-9.007 17.226 2.873 1.502c6.142 3.211 10.715 1.944 13.718-3.801v0c3.001-5.739 1.43-10.214-4.711-13.425z" fill="#f36527" data-fill-palette-color="accent"></path><path d="M158.74 255.341l-3.937 1.312 1.935-42.57 3.34-1.112 27.076 32.906-3.938 1.311-12.578-15.45-12.233 4.075zM158.366 216.653l-0.323 0.107 0.303 17.636 11.381-3.791z" fill="#f36527" data-fill-palette-color="accent"></path><path d="M246.386 183.922l-1.865 3.637-14.964-7.676-26.86 2.059 1.97-3.84 24.295-1.785 0.155-0.303-13.891-18.496 1.97-3.84 13.52 22.205z" fill="#f36527" data-fill-palette-color="accent"></path><path d="M1.025 126.124c0-8.559 6.939-15.498 15.499-15.498 8.559 0 15.498 6.939 15.498 15.498 0 8.559-6.939 15.498-15.498 15.499-8.559 0-15.498-6.939-15.499-15.499z" fill="#f36527" data-fill-palette-color="accent"></path><path d="M224.631 126.124c0-8.559 6.939-15.498 15.498-15.498 8.559 0 15.498 6.939 15.499 15.498 0 8.559-6.939 15.498-15.499 15.499-8.559 0-15.498-6.939-15.498-15.499z" fill="#f36527" data-fill-palette-color="accent"></path></g><g id="text-1"></g></svg></g></svg></g></svg></g></svg></g><defs></defs></svg><rect width="395.5199999999999" height="139.05273278038794" fill="none" stroke="none" visibility="hidden"></rect></g></svg></g></svg>